<svg width="1920" height="1080" viewBox="0 0 1920 1080" fill="none" xmlns="http://www.w3.org/2000/svg">
<g clip-path="url(#clip0_411_2215)">
<rect width="1920" height="1080" fill="url(#paint0_linear_411_2215)"/>
<path d="M1035 868L1610 976.5L1519 1242L1035 868Z" fill="url(#paint1_radial_411_2215)" fill-opacity="0.15"/>
<path d="M1844.5 705L2006.5 1083.5L1562 1155.5L1844.5 705Z" fill="url(#paint2_radial_411_2215)" fill-opacity="0.15"/>
<path d="M1505 1005L1870 1190.5L1603.5 1256.5L1505 1005Z" fill="url(#paint3_radial_411_2215)" fill-opacity="0.15"/>
<path opacity="0.1" d="M2153.5 60V194L1650.5 127.5L2153.5 60Z" fill="white"/>
<path opacity="0.05" d="M1539 300.5L1918 354L2016.5 700.5L1539 300.5Z" fill="white"/>
<path opacity="0.1" d="M2051.5 134.5L2167.5 624.5L1630 344L2051.5 134.5Z" fill="white"/>
</g>
<defs>
<linearGradient id="paint0_linear_411_2215" x1="479.5" y1="-9.82417e-06" x2="1431" y2="1080" gradientUnits="userSpaceOnUse">
<stop stop-color="#109BE0"/>
<stop offset="1" stop-color="#2367AE"/>
</linearGradient>
<radialGradient id="paint1_radial_411_2215" cx="0" cy="0" r="1" gradientUnits="userSpaceOnUse" gradientTransform="translate(1318 1087.5) rotate(134.653) scale(233.35 272.456)">
<stop stop-color="white" stop-opacity="0.3"/>
<stop offset="1" stop-color="white"/>
</radialGradient>
<radialGradient id="paint2_radial_411_2215" cx="0" cy="0" r="1" gradientUnits="userSpaceOnUse" gradientTransform="translate(1577.5 1033) rotate(134.653) scale(233.349 272.456)">
<stop stop-color="white" stop-opacity="0.3"/>
<stop offset="1" stop-color="white"/>
</radialGradient>
<radialGradient id="paint3_radial_411_2215" cx="0" cy="0" r="1" gradientUnits="userSpaceOnUse" gradientTransform="translate(1383.5 1241) rotate(134.653) scale(233.349 272.456)">
<stop stop-color="white" stop-opacity="0.3"/>
<stop offset="1" stop-color="white"/>
</radialGradient>
<clipPath id="clip0_411_2215">
<rect width="1920" height="1080" fill="white"/>
</clipPath>
</defs>
</svg>
