<svg width="64" height="64" viewBox="0 0 64 64" fill="none" xmlns="http://www.w3.org/2000/svg">
<g clip-path="url(#clip0_541_626)">
<path d="M30.176 14.0107H38.5667V24.4947C38.5667 24.76 38.672 25.0143 38.8596 25.2018C39.0471 25.3894 39.3015 25.4947 39.5667 25.4947C39.8319 25.4947 40.0863 25.3894 40.2738 25.2018C40.4613 25.0143 40.5667 24.76 40.5667 24.4947V13.0107C40.5667 12.7455 40.4613 12.4912 40.2738 12.3036C40.0863 12.1161 39.8319 12.0107 39.5667 12.0107H30.176C29.9108 12.0107 29.6565 12.1161 29.4689 12.3036C29.2814 12.4912 29.176 12.7455 29.176 13.0107C29.176 13.276 29.2814 13.5303 29.4689 13.7178C29.6565 13.9054 29.9108 14.0107 30.176 14.0107Z" fill="#0088CC"/>
<path d="M38.5667 32.5332V42.0505C38.5667 42.3158 38.672 42.5701 38.8595 42.7576C39.0471 42.9452 39.3014 43.0505 39.5667 43.0505C39.8319 43.0505 40.0862 42.9452 40.2738 42.7576C40.4613 42.5701 40.5667 42.3158 40.5667 42.0505V32.5332C40.5667 32.268 40.4613 32.0136 40.2738 31.8261C40.0862 31.6386 39.8319 31.5332 39.5667 31.5332C39.3014 31.5332 39.0471 31.6386 38.8595 31.8261C38.672 32.0136 38.5667 32.268 38.5667 32.5332Z" fill="#0088CC"/>
<path d="M39.5667 47.9601C39.3014 47.9601 39.0471 48.0654 38.8596 48.253C38.672 48.4405 38.5667 48.6949 38.5667 48.9601V62.0001H2V14.0107H10.484C10.7492 14.0107 11.0036 13.9054 11.1911 13.7178C11.3786 13.5303 11.484 13.276 11.484 13.0107C11.484 12.7455 11.3786 12.4912 11.1911 12.3036C11.0036 12.1161 10.7492 12.0107 10.484 12.0107H1C0.734784 12.0107 0.48043 12.1161 0.292893 12.3036C0.105357 12.4912 0 12.7455 0 13.0107L0 63.0001C0 63.2653 0.105357 63.5196 0.292893 63.7072C0.48043 63.8947 0.734784 64.0001 1 64.0001H39.5667C39.8319 64.0001 40.0862 63.8947 40.2738 63.7072C40.4613 63.5196 40.5667 63.2653 40.5667 63.0001V48.9601C40.5667 48.6949 40.4613 48.4405 40.2738 48.253C40.0862 48.0654 39.8319 47.9601 39.5667 47.9601Z" fill="#0088CC"/>
<path d="M36.0774 25.4946C36.3426 25.4946 36.5969 25.3893 36.7845 25.2017C36.972 25.0142 37.0774 24.7598 37.0774 24.4946V16.4946C37.0774 16.2294 36.972 15.9751 36.7845 15.7875C36.5969 15.6 36.3426 15.4946 36.0774 15.4946H4.48938C4.22416 15.4946 3.96981 15.6 3.78227 15.7875C3.59474 15.9751 3.48938 16.2294 3.48938 16.4946V59.5106C3.48938 59.7758 3.59474 60.0302 3.78227 60.2177C3.96981 60.4053 4.22416 60.5106 4.48938 60.5106H36.0774C36.3426 60.5106 36.5969 60.4053 36.7845 60.2177C36.972 60.0302 37.0774 59.7758 37.0774 59.5106V49.6986C37.0774 49.4334 36.972 49.1791 36.7845 48.9915C36.5969 48.804 36.3426 48.6986 36.0774 48.6986C35.8122 48.6986 35.5578 48.804 35.3703 48.9915C35.1827 49.1791 35.0774 49.4334 35.0774 49.6986V58.5106H5.48938V17.5H35.0774V24.4946C35.0774 24.7598 35.1827 25.0142 35.3703 25.2017C35.5578 25.3893 35.8122 25.4946 36.0774 25.4946Z" fill="#0088CC"/>
<path d="M35.0774 31.228V43.1747C35.0774 43.4399 35.1827 43.6943 35.3703 43.8818C35.5578 44.0693 35.8122 44.1747 36.0774 44.1747C36.3426 44.1747 36.597 44.0693 36.7845 43.8818C36.972 43.6943 37.0774 43.4399 37.0774 43.1747V31.228C37.0774 30.9628 36.972 30.7085 36.7845 30.5209C36.597 30.3334 36.3426 30.228 36.0774 30.228C35.8122 30.228 35.5578 30.3334 35.3703 30.5209C35.1827 30.7085 35.0774 30.9628 35.0774 31.228Z" fill="#0088CC"/>
<path d="M13.7587 14.0107H26.8067C26.9584 14.0108 27.1082 13.9764 27.2446 13.9101C27.3811 13.8438 27.5007 13.7474 27.5943 13.628C27.688 13.5087 27.7532 13.3696 27.7852 13.2213C27.8171 13.073 27.8149 12.9193 27.7787 12.772L26.9107 9.24533C26.8576 9.02792 26.7331 8.83462 26.5571 8.69635C26.3811 8.55808 26.1639 8.48284 25.9401 8.48267H14.6267C14.4029 8.48284 14.1856 8.55808 14.0097 8.69635C13.8337 8.83462 13.7092 9.02792 13.6561 9.24533L12.7881 12.772C12.7519 12.9192 12.7496 13.0727 12.7815 13.2209C12.8134 13.3691 12.8785 13.5082 12.972 13.6275C13.0655 13.7468 13.185 13.8433 13.3212 13.9097C13.4575 13.9761 13.6071 14.0106 13.7587 14.0107ZM15.4107 10.4827H25.1561L25.5307 12.0107H15.0347L15.4107 10.4827Z" fill="#0088CC"/>
<path d="M63 0H60.7334C60.4681 0 60.2138 0.105357 60.0263 0.292893C59.8387 0.48043 59.7334 0.734784 59.7334 1C59.7334 1.26522 59.8387 1.51957 60.0263 1.70711C60.2138 1.89464 60.4681 2 60.7334 2H62V10.1427C62 12.1771 61.1919 14.1281 59.7533 15.5666C58.3148 17.0052 56.3638 17.8133 54.3294 17.8133C52.295 17.8133 50.3439 17.0052 48.9054 15.5666C47.4669 14.1281 46.6587 12.1771 46.6587 10.1427V2H48.476C48.7412 2 48.9956 1.89464 49.1831 1.70711C49.3707 1.51957 49.476 1.26522 49.476 1C49.476 0.734784 49.3707 0.48043 49.1831 0.292893C48.9956 0.105357 48.7412 0 48.476 0L45.6587 0C45.3935 0 45.1391 0.105357 44.9516 0.292893C44.7641 0.48043 44.6587 0.734784 44.6587 1V10.1427C44.6618 12.5341 45.5497 14.8398 47.1513 16.6157C48.7529 18.3916 50.955 19.5121 53.3334 19.7613V22.632C53.3334 36.632 43.4174 45.3053 34.2294 45.3053C33.1255 45.3359 32.027 45.1395 31.0021 44.7284C29.9772 44.3173 29.0475 43.7001 28.2707 42.9152C27.4939 42.1303 26.8865 41.1943 26.486 40.1651C26.0856 39.1359 25.9007 38.0355 25.9427 36.932C25.9083 34.8516 26.6777 32.8381 28.0907 31.3107C28.9837 30.4436 30.0457 29.7698 31.2106 29.3315C32.3756 28.8931 33.6183 28.6994 34.8614 28.7627C38.448 28.7627 42.5614 31.2187 47.0867 36.06C47.2677 36.2545 47.5187 36.3691 47.7842 36.3786C48.0498 36.3881 48.3082 36.2917 48.5027 36.1107C48.6972 35.9296 48.8118 35.6787 48.8213 35.4132C48.8308 35.1476 48.7344 34.8892 48.5534 34.6947C43.6347 29.432 39.0294 26.7627 34.8667 26.7627C33.3523 26.696 31.8405 26.9431 30.4262 27.4885C29.0119 28.0339 27.7256 28.8658 26.648 29.932C24.88 31.8305 23.9128 34.338 23.948 36.932C23.9137 38.2963 24.1556 39.6534 24.6593 40.9218C25.163 42.1902 25.918 43.3436 26.8789 44.3126C27.8399 45.2816 28.9869 46.0463 30.251 46.5606C31.5151 47.0749 32.8702 47.3282 34.2347 47.3053C47.2707 47.3053 55.3387 34.5053 55.3387 22.6387V19.7613C57.7147 19.509 59.9135 18.3872 61.5124 16.6116C63.1113 14.836 63.9973 12.532 64 10.1427V1C64 0.734784 63.8947 0.48043 63.7071 0.292893C63.5196 0.105357 63.2652 0 63 0V0Z" fill="#0088CC"/>
<path d="M58.6973 46.5907C58.2804 46.5969 57.8661 46.6583 57.4653 46.7734C55.9598 44.2431 54.3127 41.7996 52.532 39.4547C52.4525 39.3502 52.3532 39.2624 52.2397 39.1962C52.1263 39.1301 52.0009 39.0869 51.8708 39.0692C51.7407 39.0515 51.6083 39.0596 51.4813 39.093C51.3543 39.1265 51.2352 39.1846 51.1307 39.2641C51.0261 39.3436 50.9383 39.4429 50.8721 39.5563C50.806 39.6698 50.7628 39.7951 50.7451 39.9253C50.7274 40.0554 50.7355 40.1877 50.7689 40.3147C50.8024 40.4417 50.8605 40.5609 50.94 40.6654C52.6486 42.9211 54.2331 45.2682 55.6867 47.6961C54.833 48.4116 54.2591 49.4053 54.066 50.5023C53.8729 51.5993 54.073 52.7293 54.631 53.6933C55.189 54.6573 56.0692 55.3935 57.1166 55.7725C58.1641 56.1514 59.3116 56.1486 60.3572 55.7647C61.4028 55.3809 62.2795 54.6404 62.8329 53.6738C63.3864 52.7071 63.5811 51.5762 63.3827 50.4802C63.1844 49.3841 62.6058 48.3931 61.7488 47.6817C60.8917 46.9702 59.8112 46.5839 58.6973 46.5907ZM58.6973 54.1134C58.1512 54.1134 57.6173 53.9515 57.1632 53.648C56.7091 53.3446 56.3552 52.9134 56.1462 52.4088C55.9372 51.9042 55.8825 51.349 55.989 50.8134C56.0956 50.2777 56.3586 49.7857 56.7448 49.3995C57.1309 49.0133 57.623 48.7504 58.1586 48.6438C58.6943 48.5373 59.2495 48.5919 59.754 48.8009C60.2586 49.0099 60.6899 49.3639 60.9933 49.818C61.2967 50.2721 61.4587 50.8059 61.4587 51.3521C61.4579 52.0842 61.1668 52.7862 60.6491 53.3039C60.1314 53.8216 59.4295 54.1127 58.6973 54.1134Z" fill="#0088CC"/>
<path d="M27.2 24.1826C27.2 23.9174 27.0946 23.663 26.9071 23.4755C26.7196 23.288 26.4652 23.1826 26.2 23.1826H10C9.73478 23.1826 9.48043 23.288 9.29289 23.4755C9.10536 23.663 9 23.9174 9 24.1826C9 24.4478 9.10536 24.7022 9.29289 24.8897C9.48043 25.0773 9.73478 25.1826 10 25.1826H26.2053C26.4696 25.1812 26.7226 25.0752 26.909 24.8878C27.0954 24.7005 27.2 24.4469 27.2 24.1826Z" fill="#0088CC"/>
<path d="M21.3013 30.228H10C9.86868 30.228 9.73864 30.2539 9.61732 30.3041C9.49599 30.3544 9.38575 30.4281 9.29289 30.5209C9.20003 30.6138 9.12638 30.724 9.07612 30.8453C9.02587 30.9667 9 31.0967 9 31.228C9 31.3593 9.02587 31.4894 9.07612 31.6107C9.12638 31.732 9.20003 31.8423 9.29289 31.9351C9.38575 32.028 9.49599 32.1016 9.61732 32.1519C9.73864 32.2022 9.86868 32.228 10 32.228H21.2987C21.5639 32.228 21.8182 32.1227 22.0058 31.9351C22.1933 31.7476 22.2987 31.4932 22.2987 31.228C22.2987 30.9628 22.1933 30.7085 22.0058 30.5209C21.8182 30.3334 21.5639 30.228 21.2987 30.228H21.3013Z" fill="#0088CC"/>
<path d="M10 39.2734H21.2987C21.5639 39.2734 21.8182 39.1681 22.0058 38.9805C22.1933 38.793 22.2987 38.5387 22.2987 38.2734C22.2987 38.0082 22.1933 37.7539 22.0058 37.5663C21.8182 37.3788 21.5639 37.2734 21.2987 37.2734H10C9.73478 37.2734 9.48043 37.3788 9.29289 37.5663C9.10536 37.7539 9 38.0082 9 38.2734C9 38.5387 9.10536 38.793 9.29289 38.9805C9.48043 39.1681 9.73478 39.2734 10 39.2734Z" fill="#0088CC"/>
<path d="M10 46.3186H21.2987C21.5639 46.3186 21.8182 46.2132 22.0058 46.0257C22.1933 45.8382 22.2987 45.5838 22.2987 45.3186C22.2987 45.0534 22.1933 44.799 22.0058 44.6115C21.8182 44.424 21.5639 44.3186 21.2987 44.3186H10C9.73478 44.3186 9.48043 44.424 9.29289 44.6115C9.10536 44.799 9 45.0534 9 45.3186C9 45.5838 9.10536 45.8382 9.29289 46.0257C9.48043 46.2132 9.73478 46.3186 10 46.3186Z" fill="#0088CC"/>
<path d="M10 53.364H30.612C30.8772 53.364 31.1316 53.2587 31.3191 53.0711C31.5066 52.8836 31.612 52.6292 31.612 52.364C31.612 52.0988 31.5066 51.8444 31.3191 51.6569C31.1316 51.4694 30.8772 51.364 30.612 51.364H10C9.73478 51.364 9.48043 51.4694 9.29289 51.6569C9.10536 51.8444 9 52.0988 9 52.364C9 52.6292 9.10536 52.8836 9.29289 53.0711C9.48043 53.2587 9.73478 53.364 10 53.364Z" fill="#0088CC"/>
</g>
<defs>
<clipPath id="clip0_541_626">
<rect width="64" height="64" fill="white"/>
</clipPath>
</defs>
</svg>
