<svg width="64" height="64" viewBox="0 0 64 64" fill="none" xmlns="http://www.w3.org/2000/svg">
<g clip-path="url(#clip0_541_1981)">
<path d="M19.996 4.09985C16.888 4.09985 13.994 5.53385 12.11 7.97185C11.976 7.96585 11.844 7.96185 11.712 7.96185C6.958 7.96185 3.09 11.8299 3.09 16.5839C3.09 18.0599 3.456 19.4779 4.158 20.7459C1.534 23.0079 0 26.3179 0 29.8139C0 33.9659 2.126 37.7699 5.606 39.9559C5.518 40.5039 5.472 41.0599 5.472 41.6199C5.472 44.1239 6.376 46.5439 8.016 48.4339C9.388 50.0139 11.198 51.1379 13.196 51.6699C13.278 56.2239 17.008 59.9019 21.582 59.9019C26.206 59.9019 29.968 56.1399 29.968 51.5159V14.0719C29.968 8.57385 25.496 4.09985 19.998 4.09985H19.996ZM27.464 19.5939C27.464 23.7119 24.114 27.0639 19.996 27.0639C19.306 27.0639 18.744 27.6239 18.744 28.3159C18.744 29.0079 19.304 29.5679 19.996 29.5679C22.966 29.5679 25.636 28.2599 27.464 26.1919V41.8159C27.06 41.5639 26.614 41.3559 26.126 41.2039C23.272 40.3059 19.896 41.5219 18.1 44.0939C17.704 44.6599 17.842 45.4399 18.41 45.8359C18.978 46.2319 19.756 46.0919 20.152 45.5259C21.496 43.5999 23.798 43.0939 25.374 43.5899C26.154 43.8359 27.462 44.5599 27.462 46.6499V51.5159C27.462 54.7599 24.824 57.3999 21.58 57.3999C18.336 57.3999 15.696 54.7599 15.696 51.5159C15.696 51.2899 15.71 51.0539 15.74 50.8159C15.822 50.1439 15.354 49.5279 14.684 49.4279C10.86 48.8519 7.974 45.4959 7.974 41.6219C7.974 40.9519 8.058 40.2859 8.224 39.6459C8.72 37.7899 10.522 35.6439 10.54 35.6219C10.986 35.0939 10.922 34.3059 10.394 33.8579C9.866 33.4099 9.078 33.4759 8.63 34.0039C8.56 34.0859 7.254 35.6379 6.386 37.4659C3.96 35.6959 2.5 32.8759 2.5 29.8159C2.5 26.7299 4.012 23.8299 6.546 22.0559C6.554 22.0499 6.562 22.0439 6.57 22.0379C6.588 22.0239 6.608 22.0119 6.626 21.9959C8.86 20.1519 12.22 19.5159 12.252 19.5099C12.932 19.3859 13.382 18.7339 13.258 18.0539C13.134 17.3739 12.482 16.9239 11.802 17.0459C11.66 17.0719 8.75 17.6179 6.19 19.2319C5.796 18.4119 5.59 17.5139 5.59 16.5839C5.59 13.2099 8.336 10.4639 11.708 10.4639C11.974 10.4639 12.254 10.4839 12.54 10.5219C13.016 10.5859 13.486 10.3719 13.752 9.96985C15.142 7.86185 17.474 6.60185 19.994 6.60185C24.112 6.60185 27.462 9.95185 27.462 14.0719V19.5959L27.464 19.5939Z" fill="#0088CC"/>
<path d="M64.0001 29.8139C64.0001 26.3179 62.4641 23.0099 59.8421 20.7459C60.5461 19.4759 60.9121 18.0579 60.9121 16.5819C60.9121 11.8279 57.0441 7.9599 52.2901 7.9599C52.1581 7.9599 52.0261 7.9639 51.8921 7.9699C50.0081 5.5319 47.1121 4.0979 44.0061 4.0979C38.5081 4.0979 34.0341 8.5719 34.0341 14.0699V51.5139C34.0341 56.1379 37.7961 59.8999 42.4201 59.8999C46.9921 59.8999 50.7221 56.2219 50.8041 51.6679C52.8021 51.1359 54.6121 50.0119 55.9841 48.4319C57.6241 46.5419 58.5281 44.1239 58.5281 41.6179C58.5281 41.0599 58.4841 40.5019 58.3941 39.9539C61.8741 37.7679 64.0001 33.9639 64.0001 29.8119V29.8139ZM57.6121 37.4639C56.7441 35.6359 55.4381 34.0839 55.3681 34.0019C54.9221 33.4759 54.1321 33.4099 53.6061 33.8559C53.0801 34.3019 53.0141 35.0919 53.4601 35.6199C53.4781 35.6419 55.2801 37.7879 55.7761 39.6439C55.9421 40.2859 56.0261 40.9499 56.0261 41.6199C56.0261 45.4939 53.1421 48.8499 49.3161 49.4259C48.6461 49.5259 48.1781 50.1419 48.2601 50.8139C48.2881 51.0519 48.3041 51.2879 48.3041 51.5139C48.3041 54.7579 45.6641 57.3979 42.4201 57.3979C39.1761 57.3979 36.5381 54.7579 36.5381 51.5139V46.6479C36.5381 44.5559 37.8461 43.8339 38.6261 43.5879C40.2041 43.0919 42.5041 43.5979 43.8481 45.5239C44.2441 46.0899 45.0241 46.2299 45.5901 45.8339C46.1561 45.4379 46.2961 44.6579 45.9001 44.0919C44.1041 41.5199 40.7301 40.3039 37.8741 41.2019C37.3861 41.3559 36.9401 41.5619 36.5361 41.8139V26.1899C38.3641 28.2579 41.0341 29.5659 44.0061 29.5659C44.6981 29.5659 45.2581 29.0059 45.2581 28.3139C45.2581 27.6219 44.6981 27.0619 44.0061 27.0619C39.8881 27.0619 36.5361 23.7119 36.5361 19.5919V14.0679C36.5361 9.9499 39.8861 6.5979 44.0061 6.5979C46.5241 6.5979 48.8561 7.8579 50.2461 9.9659C50.5101 10.3679 50.9821 10.5819 51.4581 10.5179C51.7441 10.4799 52.0241 10.4599 52.2901 10.4599C55.6641 10.4599 58.4101 13.2059 58.4101 16.5799C58.4101 17.5099 58.2041 18.4079 57.8081 19.2279C55.2481 17.6139 52.3381 17.0679 52.1961 17.0419C51.5161 16.9179 50.8661 17.3679 50.7421 18.0479C50.6181 18.7279 51.0681 19.3779 51.7461 19.5039C51.7801 19.5099 55.1381 20.1479 57.3721 21.9899C57.3901 22.0059 57.4101 22.0199 57.4301 22.0339C57.4381 22.0399 57.4441 22.0459 57.4501 22.0499C59.9841 23.8239 61.4961 26.7259 61.4961 29.8099C61.4961 32.8699 60.0361 35.6899 57.6101 37.4599L57.6121 37.4639Z" fill="#0088CC"/>
<path d="M51.9041 31.082C50.2941 31.082 50.2921 33.584 51.9041 33.584C53.5141 33.584 53.5161 31.082 51.9041 31.082Z" fill="#0088CC"/>
</g>
<defs>
<clipPath id="clip0_541_1981">
<rect width="64" height="64" fill="white"/>
</clipPath>
</defs>
</svg>
