<svg width="64" height="64" viewBox="0 0 64 64" fill="none" xmlns="http://www.w3.org/2000/svg">
<path d="M24.9942 44.9712C24.9496 44.9712 24.905 44.9683 24.8604 44.9615L15.449 43.5964C15.0923 43.5442 14.7947 43.2934 14.6815 42.9458C14.5676 42.5991 14.6568 42.216 14.9115 41.9583L51.8855 4.41438C52.784 3.50286 53.977 3 55.2472 3C56.5162 3 57.7104 3.50289 58.6081 4.41438C59.5058 5.3255 59.9999 6.5372 59.9999 7.82698C59.9999 9.11676 59.5055 10.328 58.6081 11.2396L25.6662 44.6882C25.4865 44.8695 25.2443 44.971 24.9941 44.971L24.9942 44.9712ZM17.5994 41.9574L24.6588 42.9818L57.263 9.87395C57.8013 9.32737 58.0977 8.60033 58.0977 7.82633C58.0977 7.05197 57.8013 6.32537 57.263 5.77871C56.1848 4.68395 54.3073 4.68592 53.2291 5.77871L17.5994 41.9574Z" fill="#0088CC"/>
<path d="M45.8356 18.3478C45.5922 18.3478 45.3487 18.2532 45.1635 18.065C44.7917 17.6876 44.7917 17.0775 45.1635 16.7L53.9027 7.82631C54.2744 7.44885 54.8753 7.44885 55.2471 7.82631C55.6188 8.20378 55.6188 8.8139 55.2471 9.1914L46.5079 18.065C46.3222 18.254 46.0791 18.3478 45.8357 18.3478H45.8356Z" fill="#0088CC"/>
<path d="M24.9943 44.9712C24.9496 44.9712 24.905 44.9684 24.8604 44.9615L15.449 43.5964C15.0923 43.5442 14.7947 43.2934 14.6815 42.9459C14.5676 42.5991 14.6568 42.216 14.9115 41.9583L26.3399 30.354C26.6252 30.0623 27.0595 29.9883 27.4237 30.1667C27.7878 30.3443 28.0018 30.7364 27.9572 31.1438C27.9552 31.164 27.7356 33.4491 28.986 34.7089C29.6972 35.4251 30.8057 35.7022 32.286 35.5371C32.6864 35.4946 33.0733 35.7099 33.2471 36.0789C33.422 36.4486 33.3479 36.8908 33.0626 37.1805L25.6665 44.6891C25.4864 44.87 25.2442 44.9715 24.9939 44.9715L24.9943 44.9712ZM17.5994 41.9575L24.6588 42.9819L30.1638 37.3922C29.1541 37.1931 28.3078 36.7501 27.6348 36.0667C26.8056 35.2248 26.3997 34.1612 26.2059 33.2209L17.5994 41.9575Z" fill="#0088CC"/>
<path d="M4.95034 60.9999C4.74793 60.9999 4.54552 60.9343 4.37618 60.8041C4.04906 60.5512 3.91796 60.1139 4.05184 59.7189L7.01625 51.0125C7.29875 49.9141 7.89005 48.8597 8.70562 48.0303C9.50531 47.2183 10.6529 46.8072 11.8573 46.8987C12.0836 46.9161 12.6152 46.7915 13.6312 45.7577L17.2839 42.2768C17.4939 42.0769 17.7831 41.9835 18.0692 42.0247L23.9515 42.878C24.3109 42.931 24.6094 43.1859 24.7217 43.5374C24.8341 43.889 24.7389 44.273 24.4775 44.5279L17.8764 51.0035C15.5079 53.4083 12.8966 55.621 10.1277 57.5682L5.48891 60.8284C5.32834 60.9429 5.13947 60.9999 4.95021 60.9999H4.95034ZM11.514 48.8167C10.9359 48.8167 10.4215 49.0186 10.0509 49.3961C9.47195 49.9831 9.05159 50.7368 8.83401 51.5747L6.79752 57.5628L9.04791 55.9806C11.7234 54.1001 14.2457 51.9627 16.5455 49.6274L21.7604 44.5112L18.2533 44.0026L14.9553 47.1458C14.2098 47.9036 13.0415 48.9316 11.7123 48.8244C11.6454 48.8188 11.5788 48.8167 11.5139 48.8167L11.514 48.8167Z" fill="#0088CC"/>
</svg>
