<svg width="28" height="28" viewBox="0 0 28 28" fill="none" xmlns="http://www.w3.org/2000/svg">
<path d="M18 10L10 18" stroke="white" stroke-linecap="round" stroke-linejoin="round"/>
<path d="M10 10L18 18" stroke="white" stroke-linecap="round" stroke-linejoin="round"/>
<path d="M8 1H20V-1H8V1ZM27 8V20H29V8H27ZM20 27H8V29H20V27ZM1 20V8H-1V20H1ZM8 27C4.13401 27 1 23.866 1 20H-1C-1 24.9706 3.02944 29 8 29V27ZM27 20C27 23.866 23.866 27 20 27V29C24.9706 29 29 24.9706 29 20H27ZM20 1C23.866 1 27 4.13401 27 8H29C29 3.02944 24.9706 -1 20 -1V1ZM8 -1C3.02944 -1 -1 3.02944 -1 8H1C1 4.13401 4.13401 1 8 1V-1Z" fill="white"/>
</svg>
