<svg width="64" height="64" viewBox="0 0 64 64" fill="none" xmlns="http://www.w3.org/2000/svg">
<path d="M60.3408 60.7229L57.5095 44.1475C57.2044 42.3616 55.9375 40.927 54.2029 40.4038L46.5664 38.0996C46.4083 36.2329 45.6429 34.4718 44.3691 33.0778C43.3503 31.9628 42.0688 31.1509 40.6561 30.7029C40.8979 30.4346 41.122 30.1672 41.3276 29.9058C43.1436 27.5961 44.1159 25.0516 44.3634 23.3153H44.9525C46.4848 23.3153 47.7314 22.0688 47.7314 20.5364V19.1119C47.7314 18.0893 47.1561 17.1626 46.291 16.6817V13.2563C46.291 12.7386 45.8714 12.319 45.3538 12.319C44.8361 12.319 44.4166 12.7385 44.4166 13.2563V17.1017C44.0516 17.1651 43.6161 17.2746 43.1706 17.4622C43.125 17.4789 43.0806 17.4981 43.0386 17.5212C42.938 17.5671 42.8373 17.6155 42.7369 17.67V10.1173C42.7369 8.03063 41.0394 6.33313 38.9528 6.33313H36.3659C35.4736 6.33313 34.602 6.644 33.9113 7.20875L33.6574 7.41625C33.1911 7.7975 32.6026 8.0075 32.0003 8.0075C31.3979 8.0075 30.8093 7.7975 30.343 7.41625L30.0893 7.20875C29.3985 6.64412 28.5269 6.33313 27.6346 6.33313H25.0475C22.9609 6.33313 21.2634 8.03063 21.2634 10.1173V17.67C21.163 17.6155 21.0623 17.5671 20.9616 17.5212C20.9196 17.4981 20.8754 17.4789 20.8298 17.4622C20.3843 17.2746 19.9486 17.1651 19.5838 17.1017V7.37813C19.5838 4.34338 22.0528 1.87437 25.0875 1.87437H38.9126C41.9475 1.87437 44.4164 4.34338 44.4164 7.37813V8.85137C44.4164 9.369 44.836 9.78862 45.3535 9.78862C45.871 9.78862 46.2908 9.36912 46.2908 8.85137V7.37813C46.2908 3.30988 42.9809 0 38.9126 0H25.0875C21.0191 0 17.7094 3.30988 17.7094 7.37813V16.6819C16.8443 17.1628 16.269 18.0892 16.269 19.112V20.5365C16.269 22.0689 17.5156 23.3154 19.0479 23.3154H19.637C19.8844 25.0518 20.8568 27.5962 22.6728 29.9059C22.8781 30.1671 23.1021 30.4342 23.3436 30.7022C20.0961 31.7337 17.7279 34.6535 17.434 38.0996L9.79726 40.4038C8.06264 40.927 6.79564 42.3616 6.49064 44.1475L5.34089 50.8786C5.25376 51.3889 5.59676 51.873 6.10689 51.9601C6.61689 52.0475 7.10126 51.7044 7.18851 51.1941L8.33826 44.463C8.52276 43.3825 9.28926 42.5148 10.3386 42.1982L17.4018 40.0671V41.921C15.7828 42.219 14.4051 43.3311 13.8378 44.872C13.6871 45.281 13.5935 45.7092 13.5595 46.1447L12.8769 54.9066C12.8254 55.5666 13.0538 56.2239 13.5031 56.7095C13.9525 57.1952 14.5899 57.474 15.2518 57.474H16.4203C16.9379 57.474 17.3575 57.0545 17.3575 56.5368C17.3575 56.019 16.9379 55.5996 16.4203 55.5996H15.2518C15.1106 55.5996 14.9749 55.5404 14.879 55.4366C14.7833 55.3331 14.7346 55.1931 14.7456 55.0525L15.4283 46.2905C15.4489 46.0266 15.5055 45.7673 15.5968 45.5196C15.9915 44.4478 17.0575 43.7219 18.2496 43.7135L18.404 43.7124C18.4113 43.7122 18.4184 43.7122 18.4255 43.7122C19.5841 43.7122 20.6098 44.3693 21.0424 45.3906C21.1638 45.677 21.2375 45.9798 21.2618 46.2905L21.9446 55.0526C21.9555 55.1931 21.9069 55.3331 21.8111 55.4367C21.7154 55.5402 21.5795 55.5996 21.4384 55.5996H20.2699C19.7523 55.5996 19.3326 56.0191 19.3326 56.5368C19.3326 57.0544 19.7523 57.474 20.2699 57.474H21.4384C22.1003 57.474 22.7378 57.1954 23.187 56.7095C23.6365 56.2236 23.8649 55.5665 23.8134 54.9067L23.1305 46.1447C23.0905 45.632 22.9686 45.1321 22.7683 44.6592C22.1509 43.2021 20.8308 42.189 19.276 41.9149V39.5016L22.4978 38.5295C22.7909 39.1469 23.3718 40.481 24.5224 43.3569C25.682 46.2586 27.1234 49.978 28.5058 53.5938C28.5156 53.6241 28.527 53.6538 28.5398 53.6828C29.4623 56.0966 30.3571 58.4609 31.1225 60.5004C31.2598 60.8661 31.6094 61.1084 32 61.1084C32.3906 61.1084 32.7403 60.8661 32.8775 60.5004C33.6428 58.4609 34.5376 56.0966 35.4603 53.6828C35.4731 53.6538 35.4844 53.624 35.4943 53.5938C36.8756 49.9801 38.3163 46.2631 39.4754 43.3623C40.6275 40.4826 41.2089 39.1474 41.5021 38.5295L44.7239 39.5016V45.0373C42.4916 45.4709 40.8008 47.4396 40.8008 49.7969C40.8008 52.4707 42.9761 54.6463 45.6501 54.6463C48.3241 54.6463 50.4995 52.4709 50.4995 49.7969C50.4995 47.4474 48.8198 45.4834 46.5983 45.0412V40.0672L53.6615 42.1984C54.7109 42.5149 55.4773 43.3826 55.6619 44.4631L58.4931 61.0385C58.5401 61.3134 58.467 61.5821 58.2871 61.7952C58.1074 62.0083 57.8548 62.1258 57.5759 62.1258H6.42414C6.14526 62.1258 5.89276 62.0084 5.71289 61.7952C5.53314 61.5821 5.45989 61.3135 5.50689 61.0385L6.44126 55.5682C6.52839 55.058 6.18539 54.5739 5.67526 54.4868C5.16526 54.3993 4.68089 54.7426 4.59364 55.2528L3.65926 60.723C3.51989 61.5395 3.74626 62.3709 4.28026 63.004C4.81451 63.637 5.59589 64 6.42414 64H57.5759C58.4041 64 59.1856 63.637 59.7197 63.0039C60.2537 62.3708 60.4801 61.5394 60.3408 60.7229ZM44.4276 19.0111C44.927 18.8866 45.3279 18.8889 45.3324 18.889C45.4939 18.8911 45.6509 18.8534 45.7904 18.7803C45.8321 18.8841 45.8568 18.9958 45.8568 19.112V20.5365C45.8568 21.0353 45.451 21.441 44.9523 21.441H44.4276V19.0111ZM19.5724 21.441H19.0478C18.549 21.441 18.1433 21.0353 18.1433 20.5365V19.112C18.1433 18.9958 18.168 18.8841 18.2096 18.7804C18.349 18.8535 18.506 18.8913 18.6676 18.889C18.6748 18.8902 19.0745 18.888 19.5724 19.0116V21.441ZM21.4468 22.4919V20.0296C21.7308 20.1147 22.0414 20.1031 22.3281 19.9835C22.82 19.7782 23.1378 19.3016 23.1378 18.769V10.1173C23.1378 9.06425 23.9945 8.2075 25.0475 8.2075H27.6344C28.0954 8.2075 28.5458 8.36812 28.9026 8.65987L29.1564 8.86738C29.9565 9.52163 30.9664 9.88175 32 9.88175C33.0336 9.88175 34.0435 9.5215 34.8436 8.86738L35.0974 8.65987C35.4541 8.36812 35.9046 8.2075 36.3656 8.2075H38.9525C40.0055 8.2075 40.8623 9.06425 40.8623 10.1173V18.7691C40.8623 19.3016 41.18 19.7784 41.6719 19.9836C41.8361 20.0521 42.0081 20.0854 42.1786 20.0854C42.3058 20.0854 42.4319 20.0667 42.5533 20.0305V22.4919C42.5533 23.8603 41.6073 26.5175 39.854 28.7472C39.2733 29.4859 38.5268 30.2794 37.6076 30.9729C37.5785 30.9924 37.5506 31.0135 37.524 31.036C36.1001 32.0887 34.2693 32.8952 32 32.8952C29.7308 32.8952 27.8999 32.0887 26.4759 31.0359C26.4493 31.0135 26.4215 30.9924 26.3925 30.973C25.4734 30.2794 24.7269 29.4859 24.146 28.7472C22.3929 26.5176 21.4468 23.8603 21.4468 22.4919ZM38.14 37.6338L32 42.223L25.86 37.6338C26.4689 36.8599 26.81 35.8665 26.81 34.98V33.4692C28.2539 34.2458 29.9768 34.7697 32 34.7697C34.0233 34.7697 35.7463 34.2458 37.19 33.4692V34.98C37.19 35.8665 37.5311 36.8599 38.14 37.6338ZM24.2959 36.5876C23.7954 36.397 23.2405 36.3657 22.7156 36.5081C22.6926 36.5135 22.6701 36.5196 22.6483 36.5261L19.4104 37.5031C19.958 34.8104 22.1445 32.6671 24.9356 32.252V34.98C24.9356 35.568 24.6731 36.1759 24.2959 36.5876ZM26.8395 44.1111C26.8378 44.1068 26.836 44.1024 26.8344 44.0981C26.7869 43.978 26.74 43.8595 26.6935 43.7424C26.6851 43.7211 26.6768 43.7 26.6684 43.679C26.6229 43.5644 26.5778 43.4506 26.5333 43.3387C26.5301 43.3309 26.527 43.3231 26.5239 43.3151C26.385 42.966 26.2511 42.6311 26.1224 42.3102C26.113 42.287 26.1036 42.2634 26.0943 42.2402C26.0573 42.1483 26.0209 42.0576 25.9848 41.9681C25.9715 41.9352 25.9584 41.9028 25.9453 41.8703C25.9103 41.7835 25.8755 41.6973 25.8413 41.6129C25.831 41.5876 25.821 41.5631 25.8109 41.538C25.7488 41.3847 25.688 41.2354 25.6288 41.0897C25.6128 41.0504 25.5964 41.0103 25.5805 40.9714C25.5573 40.9146 25.5346 40.8594 25.5119 40.8037C25.4874 40.7437 25.4629 40.6842 25.4389 40.6258C25.4299 40.6039 25.4205 40.5807 25.4115 40.559C25.4043 40.5415 25.3976 40.5254 25.3905 40.508C25.2823 40.245 25.1794 39.9971 25.0818 39.764C25.081 39.7621 25.0801 39.7603 25.0794 39.7584C25.0274 39.6342 24.9765 39.513 24.9276 39.3975C24.9023 39.3376 24.8773 39.2788 24.8528 39.221L30.1334 43.1678L27.9269 44.1051C27.923 44.1068 27.919 44.1084 27.9151 44.1101L26.9939 44.5015C26.9416 44.3694 26.8905 44.2399 26.8395 44.1111ZM29.0758 49.8496C28.8906 49.3693 28.7041 48.8861 28.5173 48.4035C28.225 47.6486 27.9459 46.9309 27.6788 46.2471L28.0285 46.0985L29.4575 47.7596L29.0758 49.8496ZM32.0181 57.4669C31.9913 57.4111 31.9593 57.3585 31.9223 57.3095C31.4988 56.1901 30.9613 54.7738 30.3664 53.2154L31.2414 48.4248H32.7586L33.6336 53.2154C33.0103 54.848 32.4504 56.3242 32.0181 57.4669ZM33.1101 46.5505H30.8899L29.8393 45.3293L32 44.4114L34.1608 45.3293L33.1101 46.5505ZM35.4828 48.4035C35.2959 48.8861 35.1094 49.3693 34.9243 49.8496L34.5425 47.7595L35.9715 46.0984L36.3213 46.247C36.0541 46.9308 35.775 47.6486 35.4828 48.4035ZM39.0725 39.3975C39.0261 39.507 38.9779 39.6219 38.9288 39.7391C38.9224 39.7544 38.9159 39.7698 38.9095 39.7851C38.8609 39.9014 38.8114 40.0201 38.7601 40.1437C38.7568 40.1519 38.7533 40.1605 38.7499 40.1688C38.7056 40.2754 38.6603 40.3854 38.6141 40.4975C38.6055 40.5185 38.5974 40.5379 38.5888 40.559C38.5785 40.5841 38.5675 40.6107 38.5571 40.6361C38.5366 40.6861 38.5158 40.7371 38.4948 40.7881C38.469 40.851 38.4434 40.9136 38.417 40.978C38.4086 40.9985 38.4 41.0199 38.3915 41.0405C38.3263 41.2004 38.2593 41.3651 38.1908 41.5344C38.18 41.5609 38.1694 41.5869 38.1586 41.6138C38.1248 41.6974 38.0903 41.7827 38.0556 41.8686C38.0421 41.9023 38.0285 41.9357 38.0149 41.9697C37.9791 42.0584 37.943 42.1481 37.9065 42.2391C37.8963 42.2645 37.8859 42.2905 37.8756 42.316C37.7485 42.6325 37.6166 42.9626 37.4798 43.3066C37.4753 43.318 37.4708 43.3291 37.4663 43.3406C37.422 43.4518 37.3773 43.5647 37.332 43.6786C37.3236 43.6999 37.3151 43.7211 37.3066 43.7425C37.2599 43.8602 37.2128 43.9792 37.165 44.1001C37.1641 44.1024 37.1633 44.1046 37.1624 44.1068C37.1109 44.237 37.0591 44.368 37.0064 44.5018L36.0843 44.11C36.081 44.1086 36.0778 44.1072 36.0746 44.1059L33.8669 43.168L39.1475 39.2212C39.1228 39.2787 39.0978 39.3375 39.0725 39.3975ZM41.3518 36.5262C41.3516 36.5262 41.3514 36.5261 41.3513 36.5261C41.3505 36.5259 41.3496 36.5257 41.3489 36.5254C40.8051 36.3623 40.2251 36.3892 39.7043 36.5876C39.3269 36.1759 39.0645 35.568 39.0645 34.98V32.2506C41.8731 32.6646 44.053 34.7878 44.5935 37.5042L41.3518 36.5262ZM48.6251 49.7969C48.6251 51.4374 47.2905 52.7719 45.6501 52.7719C44.0098 52.7719 42.6751 51.4374 42.6751 49.7969C42.6751 48.1564 44.0098 46.8219 45.6501 46.8219C47.2905 46.8219 48.6251 48.1564 48.6251 49.7969Z" fill="#0088CC"/>
</svg>
