<svg width="64" height="64" viewBox="0 0 64 64" fill="none" xmlns="http://www.w3.org/2000/svg">
<path d="M52.7981 53.78C54.0421 54.042 54.8281 55.024 54.7641 56.334C54.6981 58.168 54.7641 60.002 54.7641 61.902C54.0441 61.902 53.3221 61.902 52.5361 61.902C52.5361 60.92 52.5361 60.002 52.5361 59.02C52.5361 58.038 52.5361 57.12 52.5361 56.072C48.3441 56.072 44.2161 56.072 40.0241 56.072C40.0241 57.972 40.0241 59.936 40.0241 61.902C39.2381 61.902 38.5821 61.902 37.7961 61.902C37.7961 61.706 37.7961 61.508 37.7961 61.312C37.7961 59.674 37.8621 58.102 37.7961 56.464C37.7301 55.154 38.2541 54.172 39.7621 53.712C39.7621 51.42 39.6961 49.126 39.7621 46.834C39.8281 44.672 40.5481 42.772 42.0541 41.2C45.2641 37.99 48.4741 34.78 51.6841 31.57C51.8801 31.374 52.2741 31.242 52.6021 31.176C53.8461 31.11 55.0261 31.176 56.0741 32.028C57.0561 32.814 57.5801 33.862 57.7121 35.106C57.8441 36.286 57.4501 37.136 56.5321 37.988C54.6321 39.756 52.8641 41.656 50.9641 43.49C50.4401 44.014 50.3741 44.014 49.8501 43.49C48.6061 42.246 48.6061 42.508 49.8501 41.262C51.5541 39.558 53.2561 37.856 54.9601 36.152C55.6801 35.432 55.6161 34.318 54.7641 33.728C54.0441 33.204 53.3221 33.27 52.7341 33.86C49.7201 36.874 46.7721 39.822 43.7601 42.834C42.6461 43.948 42.0561 45.258 41.9921 46.698C41.8601 49.056 41.9921 51.35 41.9921 53.708C44.8741 53.708 47.6901 53.708 50.5741 53.708C50.5081 52.464 50.7061 51.218 51.3601 50.17C51.8181 49.45 52.3421 48.664 52.9321 48.074C55.1601 45.782 57.5181 43.488 59.8101 41.196C60.8581 40.082 61.4481 38.838 61.4481 37.266C61.3821 32.354 61.4481 27.44 61.4481 22.526C61.4481 21.084 60.2041 20.234 58.8941 20.692C58.2381 20.954 57.7801 21.61 57.7801 22.46C57.7801 24.95 57.7801 27.504 57.7801 29.994C57.7801 30.06 57.7801 30.126 57.7801 30.256C57.0601 30.256 56.4041 30.256 55.5521 30.256C55.5521 30.06 55.5521 29.862 55.5521 29.6C55.5521 27.176 55.5521 24.752 55.5521 22.264C55.5521 20.234 57.1901 18.4 59.2201 18.202C61.4481 18.006 63.2821 19.578 63.6741 21.74C63.6741 21.936 63.6741 22.134 63.6741 22.264C63.6741 27.308 63.6081 32.286 63.6741 37.33C63.6741 39.492 62.8221 41.26 61.3821 42.766C59.0241 45.19 56.6001 47.482 54.2421 49.906C53.2601 51.086 52.6701 52.264 52.8001 53.77L52.7981 53.78ZM24.2381 47.164C24.1721 44.74 23.3861 42.644 21.6841 40.94C18.8021 38.058 15.9201 35.242 13.1021 32.294C12.2501 31.442 11.4641 30.984 10.2201 31.114C8.97609 31.244 7.92809 31.77 7.14209 32.752C6.29009 33.8 6.22609 35.044 6.29009 36.29C6.29009 36.552 6.42209 36.88 6.61809 37.076C8.51809 39.042 10.4821 40.94 12.4481 42.906C13.6921 44.15 13.4301 44.15 14.6761 42.906C15.2001 42.382 15.2001 42.316 14.6761 41.792C12.7761 39.892 10.9421 38.058 9.04209 36.158C8.45209 35.568 8.32209 34.978 8.78009 34.192C9.30409 33.274 10.5481 33.078 11.2701 33.798C14.2181 36.746 17.2321 39.76 20.1781 42.706C21.4221 43.95 22.0121 45.458 22.0121 47.16C22.0121 48.732 22.0121 50.304 22.0121 51.876C22.0121 52.466 22.0121 53.056 22.0121 53.644C19.1301 53.644 16.2481 53.644 13.4301 53.644C13.3641 53.12 13.3641 52.596 13.2981 52.138C13.0361 50.37 12.1181 48.994 10.8741 47.814C8.58209 45.522 6.28809 43.228 3.99609 40.936C3.14409 40.084 2.62009 38.97 2.62009 37.53C2.62009 32.552 2.62009 27.572 2.62009 22.594C2.62009 21.35 3.34009 20.564 4.45409 20.564C5.56809 20.564 6.28809 21.35 6.28809 22.594C6.28809 24.952 6.28809 27.376 6.28809 29.734C6.28809 29.93 6.28809 30.192 6.28809 30.39C7.07409 30.39 7.79409 30.39 8.51609 30.39C8.51609 30.128 8.51609 29.932 8.51609 29.67C8.51609 27.246 8.51609 24.822 8.51609 22.398C8.51609 22.004 8.45009 21.678 8.38409 21.35C7.86009 19.516 5.89409 18.14 3.93009 18.402C1.83409 18.73 0.39209 20.498 0.39209 22.398C0.39209 27.638 0.39209 32.88 0.39209 38.12C0.39209 38.382 0.45809 38.578 0.45809 38.84C0.78609 40.608 1.70209 41.984 2.88209 43.23C5.17409 45.522 7.46809 47.816 9.76009 50.108C10.7421 51.09 11.3321 52.27 11.2021 53.776C9.89209 54.038 9.10609 55.086 9.23609 56.33C9.30209 57.312 9.23609 58.36 9.23609 59.344C9.23609 60.196 9.23609 61.048 9.23609 61.898C10.0221 61.898 10.7421 61.898 11.4641 61.898C11.4641 59.932 11.4641 58.034 11.4641 56.068C15.6561 56.068 19.7841 56.068 24.0421 56.068C24.0421 58.034 24.0421 59.998 24.0421 61.898C24.8281 61.898 25.4841 61.898 26.2041 61.898C26.2041 60.064 26.1381 58.23 26.2041 56.396C26.2701 55.086 25.6801 54.104 24.2381 53.71C24.2381 51.548 24.3041 49.386 24.2381 47.16V47.164ZM29.2821 5.30598C26.5961 3.07798 23.4521 2.09598 19.9801 2.94798C16.6401 3.73398 14.2821 5.82998 12.9061 8.97398C11.8581 11.464 12.0541 14.084 12.5781 16.638C13.6921 21.616 16.3121 25.744 19.6521 29.478C21.2241 31.246 22.9921 32.884 24.8281 34.39C26.9241 36.094 29.2161 37.6 31.3781 39.238C31.8361 39.566 32.2301 39.5 32.6221 39.238C37.1421 36.356 41.2681 33.014 44.8061 28.954C46.9021 26.53 48.7361 23.91 49.9801 20.896C51.2901 17.818 52.0761 14.608 51.6841 11.2C51.4221 8.97198 50.3741 7.07398 48.8021 5.56598C46.5101 3.33798 43.6921 2.28998 40.4821 2.74998C37.9281 3.07798 35.7661 4.19198 33.9321 5.95998C33.2121 6.67998 32.6221 7.46598 32.0321 8.12198C31.1801 7.20598 30.3281 6.15598 29.2801 5.30598H29.2821ZM33.0801 12.708C33.2121 10.546 34.0621 8.77798 35.6341 7.33598C37.0761 6.02598 38.7121 5.23998 40.6781 4.97798C43.2981 4.58598 45.5261 5.30598 47.3601 7.13998C49.2601 9.03998 49.8501 11.398 49.5221 14.084C49.2601 16.442 48.6041 18.67 47.5561 20.766C46.5741 22.862 45.2641 24.828 43.7561 26.596C42.8381 27.71 41.8561 28.758 40.8081 29.806C38.1881 32.492 35.1741 34.784 32.0301 36.816C29.6061 35.244 27.3141 33.54 25.2181 31.64C22.2041 28.954 19.5181 26.006 17.4221 22.534C15.9801 20.11 14.9981 17.556 14.6061 14.804C14.2781 12.576 14.4101 10.416 15.6541 8.44998C16.8981 6.48398 18.7321 5.37198 21.0261 4.97798C24.4981 4.38798 28.7561 6.54998 30.1961 9.82598C30.5901 10.742 30.7861 11.726 31.0481 12.708C31.6381 12.708 32.3581 12.708 33.0781 12.708H33.0801ZM41.7281 6.68198C41.7281 7.40198 41.7281 8.05798 41.7281 8.84398C42.8421 8.84398 43.8241 9.23798 44.5441 9.95798C45.2641 10.678 45.5921 11.726 45.6581 12.774C46.3781 12.774 47.1001 12.774 47.8201 12.774C48.0161 9.23598 44.6101 6.28798 41.7281 6.68198Z" fill="#0088CC"/>
</svg>
