<svg width="64" height="64" viewBox="0 0 64 64" fill="none" xmlns="http://www.w3.org/2000/svg">
<path d="M64 19.125V17.25H53.5625V8.5H42.9375V17.25H37.3125V8.5H26.6875V17.25H21.0625V8.5H10.4375V17.25H0V19.125H2.3125V51H0.0625V59.125H7.375V57.25H1.9375V52.875H42.125V51H4.1875V19.125H10.4375V41.3125C10.4375 44.2417 12.8208 46.625 15.75 46.625C18.6792 46.625 21.0625 44.2417 21.0625 41.3125V30.0625H19.1875V41.3125C19.1875 43.208 17.6455 44.75 15.75 44.75C13.8545 44.75 12.3125 43.208 12.3125 41.3125V24.125H19.1875V28.1875H21.0625V19.125H26.6875V41.3125C26.6875 44.2417 29.0708 46.625 32 46.625C34.9292 46.625 37.3125 44.2417 37.3125 41.3125V30.0625H35.4375V41.3125C35.4375 43.208 33.8955 44.75 32 44.75C30.1045 44.75 28.5625 43.208 28.5625 41.3125V24.125H35.4375V28.1875H37.3125V19.125H42.9375V41.3125C42.9375 44.2417 45.3208 46.625 48.25 46.625C51.1792 46.625 53.5625 44.2417 53.5625 41.3125V30.0625H51.6875V41.3125C51.6875 43.208 50.1455 44.75 48.25 44.75C46.3545 44.75 44.8125 43.208 44.8125 41.3125V24.125H51.6875V28.1875H53.5625V19.125H59.8125V51H44V52.875H62.0625V57.25H9.25V59.125H63.9375V51H61.6875V19.125H64ZM19.1875 22.25H12.3125V10.375H19.1875V22.25ZM35.4375 22.25H28.5625V10.375H35.4375V22.25ZM51.6875 22.25H44.8125V10.375H51.6875V22.25Z" fill="#0088CC"/>
<path d="M27 4.75H37V6.625H27V4.75Z" fill="#0088CC"/>
<path d="M43.25 4.75H53.25V6.625H43.25V4.75Z" fill="#0088CC"/>
<path d="M10.75 4.75H20.75V6.625H10.75V4.75Z" fill="#0088CC"/>
<path d="M15.4375 34.4375H17.3125V36.3125H15.4375V34.4375Z" fill="#0088CC"/>
<path d="M14.1875 39.4375H16.0625V41.3125H14.1875V39.4375Z" fill="#0088CC"/>
<path d="M14.1875 29.4375H16.0625V31.3125H14.1875V29.4375Z" fill="#0088CC"/>
<path d="M30.4375 34.4375H32.3125V36.3125H30.4375V34.4375Z" fill="#0088CC"/>
<path d="M31.6875 39.4375H33.5625V41.3125H31.6875V39.4375Z" fill="#0088CC"/>
<path d="M31.6875 29.4375H33.5625V31.3125H31.6875V29.4375Z" fill="#0088CC"/>
<path d="M47.9375 34.4375H49.8125V36.3125H47.9375V34.4375Z" fill="#0088CC"/>
<path d="M46.6875 39.4375H48.5625V41.3125H46.6875V39.4375Z" fill="#0088CC"/>
<path d="M46.6875 29.4375H48.5625V31.3125H46.6875V29.4375Z" fill="#0088CC"/>
</svg>
