<?xml version="1.0" encoding="utf-8"?><svg width="40" height="36" fill="none" xmlns="http://www.w3.org/2000/svg" viewBox="0 0 40 36"><path d="M37 31.667c0 .884-.345 1.732-.959 2.357a3.243 3.243 0 01-2.314.976H4.273c-.868 0-1.7-.351-2.314-.976A3.365 3.365 0 011 31.667V13.333c0-.884.345-1.732.959-2.357A3.243 3.243 0 014.273 10h6.545l3.273-5h9.818l3.273 5h6.545c.868 0 1.7.351 2.314.976.614.625.959 1.473.959 2.357v18.334z" stroke="#08C" stroke-width="2" stroke-linecap="round" stroke-linejoin="round"/><path d="M19 28.333c3.615 0 6.546-2.984 6.546-6.666C25.546 17.985 22.614 15 19 15s-6.545 2.985-6.545 6.667 2.93 6.666 6.545 6.666z" stroke="#08C" stroke-width="2" stroke-linecap="round" stroke-linejoin="round"/><circle cx="32" cy="8" r="8" fill="#08C"/><path d="M32 4v8M28 8h8" stroke="#fff" stroke-width="2" stroke-linecap="round" stroke-linejoin="round"/></svg>