<?xml version="1.0" encoding="utf-8"?><svg width="64" height="64" fill="none" xmlns="http://www.w3.org/2000/svg" viewBox="0 0 64 64"><path d="M60.34 60.723l-2.83-16.575a4.718 4.718 0 00-3.307-3.744L46.566 38.1a8.493 8.493 0 00-2.197-5.022 8.51 8.51 0 00-3.713-2.375c.242-.268.466-.536.672-.797 1.816-2.31 2.788-4.854 3.035-6.59h.59a2.782 2.782 0 002.778-2.78v-1.424c0-1.023-.575-1.95-1.44-2.43v-3.426a.937.937 0 10-1.874 0v3.846a5.78 5.78 0 00-1.378.42c-.101.045-.202.094-.302.148v-7.553a3.788 3.788 0 00-3.784-3.784h-2.587c-.892 0-1.764.311-2.455.876l-.254.207A2.625 2.625 0 0132 8.007c-.602 0-1.19-.21-1.657-.59l-.254-.208a3.889 3.889 0 00-2.454-.876h-2.588a3.788 3.788 0 00-3.784 3.784v7.553a4.811 4.811 0 00-.301-.149 5.783 5.783 0 00-1.378-.42V7.379a5.51 5.51 0 015.503-5.504h13.826a5.51 5.51 0 015.503 5.504v1.473a.937.937 0 101.875 0V7.378C46.29 3.31 42.98 0 38.913 0H25.088c-4.069 0-7.379 3.31-7.379 7.378v9.304a2.798 2.798 0 00-1.44 2.43v1.425a2.782 2.782 0 002.779 2.778h.589c.247 1.737 1.22 4.281 3.036 6.59.205.262.43.53.67.797a8.548 8.548 0 00-5.909 7.398l-7.637 2.304a4.718 4.718 0 00-3.306 3.743L5.34 50.88a.937.937 0 101.848.315l1.15-6.731a2.854 2.854 0 012-2.265l7.063-2.13v1.853c-1.62.298-2.997 1.41-3.564 2.951a4.75 4.75 0 00-.278 1.273l-.683 8.762a2.39 2.39 0 00.626 1.803 2.39 2.39 0 001.749.764h1.168a.937.937 0 100-1.874h-1.168a.508.508 0 01-.506-.547l.682-8.762c.02-.264.077-.524.169-.771.395-1.072 1.46-1.798 2.653-1.806l.154-.002h.021c1.16 0 2.185.657 2.617 1.679.122.286.195.589.22.9l.683 8.762a.51.51 0 01-.507.547H20.27a.937.937 0 100 1.874h1.168c.662 0 1.3-.279 1.749-.764.45-.486.678-1.144.626-1.803l-.682-8.762a4.75 4.75 0 00-.363-1.486c-.617-1.457-1.937-2.47-3.492-2.744v-2.413l3.222-.973c.293.618.874 1.952 2.024 4.828a781.647 781.647 0 014.018 10.326c.922 2.414 1.817 4.778 2.582 6.817a.937.937 0 001.755 0 1212.421 1212.421 0 012.617-6.906 779.126 779.126 0 013.981-10.232c1.152-2.88 1.734-4.215 2.027-4.833l3.222.973v5.535a4.857 4.857 0 00-3.923 4.76 4.855 4.855 0 004.85 4.85 4.855 4.855 0 004.848-4.85c0-2.35-1.68-4.314-3.9-4.756v-4.974l7.063 2.131a2.854 2.854 0 012 2.265l2.831 16.575a.916.916 0 01-.206.757.916.916 0 01-.711.33H6.424a.916.916 0 01-.711-.33.916.916 0 01-.206-.757l.934-5.47a.937.937 0 10-1.847-.315l-.935 5.47a2.8 2.8 0 00.621 2.281A2.8 2.8 0 006.424 64h51.152a2.8 2.8 0 002.144-.996 2.8 2.8 0 00.62-2.281zM44.429 19.01c.499-.124.9-.122.904-.122a.959.959 0 00.458-.109.889.889 0 01.067.332v1.425a.906.906 0 01-.905.904h-.524v-2.43zm-24.856 2.43h-.524a.905.905 0 01-.905-.904v-1.425a.89.89 0 01.067-.332c.139.073.296.111.458.109.007.001.407-.001.904.123v2.429zm1.875 1.05V20.03a1.313 1.313 0 001.691-1.26v-8.653c0-1.053.856-1.91 1.91-1.91h2.586c.461 0 .912.161 1.269.453l.253.207c.8.655 1.81 1.015 2.844 1.015 1.034 0 2.044-.36 2.844-1.015l.253-.207a2.009 2.009 0 011.269-.453h2.587c1.052 0 1.91.857 1.91 1.91v8.652a1.313 1.313 0 001.69 1.262v2.46c0 1.37-.946 4.026-2.699 6.256a12.35 12.35 0 01-2.33 2.289c-1.424 1.053-3.255 1.86-5.524 1.86-2.27 0-4.1-.807-5.524-1.86a12.364 12.364 0 01-2.33-2.289c-1.753-2.23-2.7-4.887-2.7-6.255zM38.14 37.635L32 42.223l-6.14-4.59c.609-.773.95-1.767.95-2.653v-1.51c1.444.776 3.167 1.3 5.19 1.3 2.023 0 3.746-.524 5.19-1.3v1.51c0 .887.341 1.88.95 2.654zm-13.844-1.046a2.563 2.563 0 00-1.648-.062l-3.238.977c.548-2.693 2.735-4.836 5.526-5.251v2.728c0 .588-.263 1.196-.64 1.608zm2.544 7.523l-.006-.013-.14-.356-.026-.063-.135-.34a393.747 393.747 0 00-.41-1.029l-.029-.07-.11-.272-.039-.098-.104-.257-.03-.075-.182-.448-.049-.119-.068-.167-.073-.178c-.01-.022-.018-.045-.027-.067l-.021-.051-.31-.744c0-.002 0-.004-.002-.006a99.072 99.072 0 00-.151-.36l-.075-.177 5.28 3.947-2.206.937-.012.005-.921.392-.154-.39zm2.236 5.739a1206.533 1206.533 0 00-1.397-3.603l.35-.148 1.428 1.66-.381 2.09zm2.942 7.617a.926.926 0 00-.096-.157c-.423-1.12-.96-2.536-1.556-4.095l.875-4.79h1.518l.875 4.79c-.624 1.633-1.184 3.11-1.616 4.252zM33.11 46.55h-2.22l-1.05-1.222 2.16-.918 2.16.918-1.05 1.221zm2.373 1.852l-.559 1.447-.382-2.09 1.43-1.662.35.149c-.268.684-.547 1.402-.84 2.157zm3.59-9.005l-.144.341-.02.046a159.623 159.623 0 00-.16.384l-.135.329-.025.061-.032.077-.062.152-.078.19-.026.063-.2.493-.032.08-.103.255-.041.1-.108.27-.031.077c-.127.316-.26.647-.396.99l-.014.035-.134.338-.025.063-.142.358-.003.007-.156.395-.922-.392-.01-.004-2.207-.938 5.28-3.947-.075.177zm2.279-2.872h-.003a2.561 2.561 0 00-1.645.062c-.377-.412-.64-1.02-.64-1.608v-2.73a6.606 6.606 0 015.53 5.254l-3.242-.978zm7.273 13.27a2.978 2.978 0 01-2.975 2.976 2.978 2.978 0 01-2.975-2.975 2.978 2.978 0 012.975-2.975 2.978 2.978 0 012.975 2.975z" fill="#08C"/></svg>