<?xml version="1.0" encoding="utf-8"?><svg width="64" height="64" fill="none" xmlns="http://www.w3.org/2000/svg" viewBox="0 0 64 64"><path d="M52.798 53.78c1.244.262 2.03 1.244 1.966 2.554-.066 1.834 0 3.668 0 5.568h-2.228V59.02v-2.948H40.024v5.83h-2.228v-.59c0-1.638.066-3.21 0-4.848-.066-1.31.458-2.292 1.966-2.752 0-2.292-.066-4.586 0-6.878.066-2.162.786-4.062 2.292-5.634l9.63-9.63c.196-.196.59-.328.918-.394 1.244-.066 2.424 0 3.472.852.982.786 1.506 1.834 1.638 3.078.132 1.18-.262 2.03-1.18 2.882-1.9 1.768-3.668 3.668-5.568 5.502-.524.524-.59.524-1.114 0-1.244-1.244-1.244-.982 0-2.228l5.11-5.11c.72-.72.656-1.834-.196-2.424-.72-.524-1.442-.458-2.03.132l-8.974 8.974c-1.114 1.114-1.704 2.424-1.768 3.864-.132 2.358 0 4.652 0 7.01h8.582c-.066-1.244.132-2.49.786-3.538.458-.72.982-1.506 1.572-2.096 2.228-2.292 4.586-4.586 6.878-6.878 1.048-1.114 1.638-2.358 1.638-3.93-.066-4.912 0-9.826 0-14.74 0-1.442-1.244-2.292-2.554-1.834-.656.262-1.114.918-1.114 1.768V30.256h-2.228V29.6v-7.336c0-2.03 1.638-3.864 3.668-4.062 2.228-.196 4.062 1.376 4.454 3.538v.524c0 5.044-.066 10.022 0 15.066 0 2.162-.852 3.93-2.292 5.436-2.358 2.424-4.782 4.716-7.14 7.14-.982 1.18-1.572 2.358-1.442 3.864l-.002.01zm-28.56-6.616c-.066-2.424-.852-4.52-2.554-6.224-2.882-2.882-5.764-5.698-8.582-8.646-.852-.852-1.638-1.31-2.882-1.18-1.244.13-2.292.656-3.078 1.638-.852 1.048-.916 2.292-.852 3.538 0 .262.132.59.328.786 1.9 1.966 3.864 3.864 5.83 5.83 1.244 1.244.982 1.244 2.228 0 .524-.524.524-.59 0-1.114l-5.634-5.634c-.59-.59-.72-1.18-.262-1.966.524-.918 1.768-1.114 2.49-.394l8.908 8.908c1.244 1.244 1.834 2.752 1.834 4.454v6.484H13.43c-.066-.524-.066-1.048-.132-1.506-.262-1.768-1.18-3.144-2.424-4.324l-6.878-6.878c-.852-.852-1.376-1.966-1.376-3.406V22.594c0-1.244.72-2.03 1.834-2.03s1.834.786 1.834 2.03V30.39h2.228v-.72-7.272c0-.394-.066-.72-.132-1.048-.524-1.834-2.49-3.21-4.454-2.948-2.096.328-3.538 2.096-3.538 3.996V38.12c0 .262.066.458.066.72.328 1.768 1.244 3.144 2.424 4.39l6.878 6.878c.982.982 1.572 2.162 1.442 3.668-1.31.262-2.096 1.31-1.966 2.554.066.982 0 2.03 0 3.014v2.554h2.228v-5.83h12.578v5.83h2.162c0-1.834-.066-3.668 0-5.502.066-1.31-.524-2.292-1.966-2.686 0-2.162.066-4.324 0-6.55v.004zm5.044-41.858c-2.686-2.228-5.83-3.21-9.302-2.358-3.34.786-5.698 2.882-7.074 6.026-1.048 2.49-.852 5.11-.328 7.664 1.114 4.978 3.734 9.106 7.074 12.84 1.572 1.768 3.34 3.406 5.176 4.912 2.096 1.704 4.388 3.21 6.55 4.848.458.328.852.262 1.244 0 4.52-2.882 8.646-6.224 12.184-10.284 2.096-2.424 3.93-5.044 5.174-8.058 1.31-3.078 2.096-6.288 1.704-9.696-.262-2.228-1.31-4.126-2.882-5.634-2.292-2.228-5.11-3.276-8.32-2.816-2.554.328-4.716 1.442-6.55 3.21-.72.72-1.31 1.506-1.9 2.162-.852-.916-1.704-1.966-2.752-2.816h.002zm3.798 7.402c.132-2.162.982-3.93 2.554-5.372 1.442-1.31 3.078-2.096 5.044-2.358 2.62-.392 4.848.328 6.682 2.162 1.9 1.9 2.49 4.258 2.162 6.944a19.686 19.686 0 01-1.966 6.682c-.982 2.096-2.292 4.062-3.8 5.83a45.124 45.124 0 01-2.948 3.21c-2.62 2.686-5.634 4.978-8.778 7.01-2.424-1.572-4.716-3.276-6.812-5.176-3.014-2.686-5.7-5.634-7.796-9.106-1.442-2.424-2.424-4.978-2.816-7.73-.328-2.228-.196-4.388 1.048-6.354 1.244-1.966 3.078-3.078 5.372-3.472 3.472-.59 7.73 1.572 9.17 4.848.394.916.59 1.9.852 2.882H33.08zm8.648-6.026v2.162c1.114 0 2.096.394 2.816 1.114.72.72 1.048 1.768 1.114 2.816h2.162c.196-3.538-3.21-6.486-6.092-6.092z" fill="#08C"/></svg>