<?xml version="1.0" encoding="utf-8"?><svg width="64" height="64" fill="none" xmlns="http://www.w3.org/2000/svg" viewBox="0 0 64 64"><g clip-path="url(#tclip0_541_626)" fill="#08C"><path d="M30.176 14.01h8.39v10.485a1 1 0 102 0V13.01a1 1 0 00-1-1h-9.39a1 1 0 000 2zM38.567 32.533v9.517a1 1 0 102 0v-9.517a1 1 0 00-2 0zM39.567 47.96a1 1 0 00-1 1V62H2V14.01h8.484a1 1 0 100-2H1a1 1 0 00-1 1V63a1 1 0 001 1h38.567a1 1 0 001-1V48.96a1 1 0 00-1-1z"/><path d="M36.077 25.495a1 1 0 001-1v-8a1 1 0 00-1-1H4.49a1 1 0 00-1 1V59.51a1 1 0 001 1h31.588a1 1 0 001-1v-9.812a1 1 0 00-2 0v8.812H5.49V17.5h29.588v6.995a1 1 0 001 1z"/><path d="M35.077 31.228v11.947a1 1 0 102 0V31.228a1 1 0 00-2 0zM13.759 14.01h13.048a1 1 0 00.972-1.238l-.868-3.527a1 1 0 00-.97-.762H14.626a1 1 0 00-.97.762l-.869 3.527a1 1 0 00.97 1.239zm1.652-3.527h9.745l.375 1.528H15.035l.376-1.528z"/><path d="M63 0h-2.267a1 1 0 100 2H62v8.143a7.67 7.67 0 11-15.341 0V2h1.817a1 1 0 100-2h-2.817a1 1 0 00-1 1v9.143a9.684 9.684 0 008.674 9.618v2.871c0 14-9.916 22.673-19.104 22.673a8.069 8.069 0 01-8.286-8.373 8.081 8.081 0 012.148-5.621 9.057 9.057 0 016.77-2.548c3.587 0 7.7 2.456 12.226 7.297a1.002 1.002 0 101.466-1.365c-4.918-5.263-9.524-7.932-13.686-7.932a10.997 10.997 0 00-8.219 3.169 10.07 10.07 0 00-2.7 7 10.12 10.12 0 0010.287 10.373c13.036 0 21.104-12.8 21.104-24.666V19.76A9.684 9.684 0 0064 10.143V1a1 1 0 00-1-1z"/><path d="M58.697 46.59a4.718 4.718 0 00-1.232.183 78.317 78.317 0 00-4.933-7.318 1 1 0 00-1.592 1.21 78.015 78.015 0 014.747 7.031 4.732 4.732 0 103.01-1.105zm0 7.523a2.76 2.76 0 110-5.521 2.76 2.76 0 010 5.521zM27.2 24.183a1 1 0 00-1-1H10a1 1 0 000 2h16.205a1 1 0 00.995-1zM21.301 30.228H10a1.001 1.001 0 000 2h11.299a1 1 0 100-2h.002zM10 39.273h11.299a1 1 0 100-2H10a1 1 0 000 2zM10 46.319h11.299a1 1 0 000-2H10a1 1 0 000 2zM10 53.364h20.612a1 1 0 100-2H10a1 1 0 000 2z"/></g><defs><clipPath id="tclip0_541_626"><path fill="#fff" d="M0 0h64v64H0z"/></clipPath></defs></svg>