<?xml version="1.0" encoding="utf-8"?><svg width="64" height="64" fill="none" xmlns="http://www.w3.org/2000/svg" viewBox="0 0 64 64"><path d="M24.994 44.971a.886.886 0 01-.134-.01l-9.411-1.365a.953.953 0 01-.768-.65.975.975 0 01.23-.988L51.886 4.414A4.689 4.689 0 0155.247 3c1.27 0 2.463.503 3.361 1.414A4.83 4.83 0 0160 7.827c0 1.29-.495 2.501-1.392 3.413L25.666 44.688a.948.948 0 01-.672.283zM17.6 41.957l7.06 1.025L57.263 9.874a2.899 2.899 0 00.835-2.048c0-.774-.297-1.5-.835-2.047-1.078-1.095-2.956-1.093-4.034 0L17.6 41.957z" fill="#08C"/><path d="M45.836 18.348a.94.94 0 01-.672-.283.975.975 0 010-1.365l8.739-8.874a.94.94 0 011.344 0 .975.975 0 010 1.365l-8.74 8.874a.938.938 0 01-.671.283zM24.994 44.971a.873.873 0 01-.134-.01l-9.411-1.365a.953.953 0 01-.768-.65.975.975 0 01.23-.988L26.34 30.354a.935.935 0 011.084-.187c.364.177.578.57.533.977-.002.02-.221 2.305 1.029 3.565.711.716 1.82.993 3.3.828.4-.042.787.173.961.542.175.37.1.812-.184 1.102l-7.397 7.508a.95.95 0 01-.672.282zM17.6 41.958l7.06 1.024 5.505-5.59c-1.01-.199-1.856-.642-2.53-1.325-.828-.842-1.234-1.906-1.428-2.846l-8.607 8.737z" fill="#08C"/><path d="M4.95 61a.941.941 0 01-.574-.196.977.977 0 01-.324-1.085l2.964-8.706a6.677 6.677 0 011.69-2.983c.8-.812 1.947-1.223 3.151-1.131.227.017.758-.108 1.774-1.141l3.653-3.481c.21-.2.5-.294.785-.252l5.883.853a.97.97 0 01.526 1.65l-6.602 6.476a56.662 56.662 0 01-7.748 6.564l-4.64 3.26A.926.926 0 014.95 61zm6.564-12.183c-.578 0-1.092.202-1.463.58-.58.586-1 1.34-1.217 2.178l-2.036 5.988 2.25-1.582a54.687 54.687 0 007.498-6.354l5.214-5.116-3.507-.508-3.298 3.143c-.745.758-1.914 1.786-3.243 1.678a2.382 2.382 0 00-.198-.007z" fill="#08C"/></svg>