<?xml version="1.0" encoding="utf-8"?><svg width="64" height="64" fill="none" xmlns="http://www.w3.org/2000/svg" viewBox="0 0 64 64"><path d="M64 19.125V17.25H53.562V8.5H42.938v8.75h-5.626V8.5H26.688v8.75h-5.625V8.5H10.438v8.75H0v1.875h2.313V51H.063v8.125h7.312V57.25H1.937v-4.375h40.188V51H4.187V19.125h6.25v22.188a5.319 5.319 0 005.313 5.312 5.319 5.319 0 005.313-5.313v-11.25h-1.875v11.25a3.441 3.441 0 01-3.438 3.438 3.441 3.441 0 01-3.438-3.438V24.125h6.876v4.063h1.875v-9.063h5.625v22.188A5.319 5.319 0 0032 46.624a5.319 5.319 0 005.313-5.313v-11.25h-1.876v11.25A3.441 3.441 0 0132 44.75a3.441 3.441 0 01-3.438-3.438V24.125h6.875v4.063h1.876v-9.063h5.624v22.188a5.319 5.319 0 005.313 5.312 5.319 5.319 0 005.313-5.313v-11.25h-1.876v11.25a3.441 3.441 0 01-3.437 3.438 3.441 3.441 0 01-3.438-3.438V24.125h6.876v4.063h1.874v-9.063h6.25V51H44v1.875h18.063v4.375H9.25v1.875h54.688V51h-2.25V19.125H64zM19.187 22.25h-6.875V10.375h6.876V22.25zm16.25 0h-6.874V10.375h6.875V22.25zm16.25 0h-6.874V10.375h6.874V22.25zM27 4.75h10v1.875H27V4.75zM43.25 4.75h10v1.875h-10V4.75zM10.75 4.75h10v1.875h-10V4.75z" fill="#08C"/><path d="M15.438 34.438h1.874v1.874h-1.875v-1.874zM14.188 39.438h1.874v1.874h-1.875v-1.874zM14.188 29.438h1.874v1.875h-1.875v-1.875zM30.438 34.438h1.875v1.874h-1.876v-1.874zM31.688 39.438h1.875v1.874h-1.876v-1.874zM31.688 29.438h1.875v1.875h-1.876v-1.875zM47.938 34.438h1.874v1.874h-1.874v-1.874zM46.688 39.438h1.874v1.874h-1.874v-1.874zM46.688 29.438h1.874v1.875h-1.874v-1.875z" fill="#08C"/></svg>