<?xml version="1.0" encoding="utf-8"?><svg width="64" height="64" fill="none" xmlns="http://www.w3.org/2000/svg" viewBox="0 0 64 64"><g clip-path="url(#qclip0_541_1981)" fill="#08C"><path d="M19.996 4.1a9.943 9.943 0 00-7.886 3.872 8.884 8.884 0 00-.398-.01c-4.754 0-8.622 3.868-8.622 8.622 0 1.476.366 2.894 1.068 4.162A11.984 11.984 0 000 29.814c0 4.152 2.126 7.956 5.606 10.142a10.398 10.398 0 007.59 11.714c.082 4.554 3.812 8.232 8.386 8.232 4.624 0 8.386-3.762 8.386-8.386V14.072c0-5.498-4.472-9.972-9.97-9.972h-.002zm7.468 15.494c0 4.118-3.35 7.47-7.468 7.47a1.253 1.253 0 000 2.504c2.97 0 5.64-1.308 7.468-3.376v15.624a5.754 5.754 0 00-1.338-.612c-2.854-.898-6.23.318-8.026 2.89a1.251 1.251 0 102.052 1.432c1.344-1.926 3.646-2.432 5.222-1.936.78.246 2.088.97 2.088 3.06v4.866A5.89 5.89 0 0121.58 57.4a5.891 5.891 0 01-5.884-5.884c0-.226.014-.462.044-.7a1.25 1.25 0 00-1.056-1.388c-3.824-.576-6.71-3.932-6.71-7.806 0-.67.084-1.336.25-1.976.496-1.856 2.298-4.002 2.316-4.024a1.252 1.252 0 00-1.91-1.618c-.07.082-1.376 1.634-2.244 3.462a9.448 9.448 0 01-3.886-7.65 9.482 9.482 0 014.046-7.76l.024-.018c.018-.014.038-.026.056-.042 2.234-1.844 5.594-2.48 5.626-2.486a1.251 1.251 0 00-.45-2.464c-.142.026-3.052.572-5.612 2.186a6.127 6.127 0 015.518-8.768c.266 0 .546.02.832.058.476.064.946-.15 1.212-.552a7.46 7.46 0 016.242-3.368c4.118 0 7.468 3.35 7.468 7.47v5.524l.002-.002zM64 29.814c0-3.496-1.536-6.804-4.158-9.068a8.542 8.542 0 001.07-4.164c0-4.754-3.868-8.622-8.622-8.622-.132 0-.264.004-.398.01a9.945 9.945 0 00-7.886-3.872c-5.498 0-9.972 4.474-9.972 9.972v37.444c0 4.624 3.762 8.386 8.386 8.386 4.572 0 8.302-3.678 8.384-8.232a10.417 10.417 0 005.18-3.236 10.394 10.394 0 002.41-8.478A11.949 11.949 0 0064 29.812v.002zm-6.388 7.65c-.868-1.828-2.174-3.38-2.244-3.462a1.251 1.251 0 00-1.908 1.618c.018.022 1.82 2.168 2.316 4.024.166.642.25 1.306.25 1.976 0 3.874-2.884 7.23-6.71 7.806a1.25 1.25 0 00-1.056 1.388c.028.238.044.474.044.7a5.891 5.891 0 01-5.884 5.884 5.89 5.89 0 01-5.882-5.884v-4.866c0-2.092 1.308-2.814 2.088-3.06 1.578-.496 3.878.01 5.222 1.936a1.251 1.251 0 002.052-1.432c-1.796-2.572-5.17-3.788-8.026-2.89-.488.154-.934.36-1.338.612V26.19a9.948 9.948 0 007.47 3.376 1.251 1.251 0 100-2.504c-4.118 0-7.47-3.35-7.47-7.47v-5.524c0-4.118 3.35-7.47 7.47-7.47 2.518 0 4.85 1.26 6.24 3.368a1.25 1.25 0 001.212.552 6.128 6.128 0 016.952 6.062c0 .93-.206 1.828-.602 2.648-2.56-1.614-5.47-2.16-5.612-2.186a1.252 1.252 0 00-.45 2.462c.034.006 3.392.644 5.626 2.486.018.016.038.03.058.044l.02.016a9.484 9.484 0 014.046 7.76c0 3.06-1.46 5.88-3.886 7.65l.002.004z"/><path d="M51.904 31.082c-1.61 0-1.612 2.502 0 2.502 1.61 0 1.612-2.502 0-2.502z"/></g><defs><clipPath id="qclip0_541_1981"><path fill="#fff" d="M0 0h64v64H0z"/></clipPath></defs></svg>