<?xml version="1.0" encoding="utf-8"?><svg viewBox="0 0 64 64" xmlns="http://www.w3.org/2000/svg" xmlns:xlink="http://www.w3.org/1999/xlink"><style>:root>svg{display:none}:root>svg:target{display:block}</style><svg fill="none" viewBox="0 0 24 24" id="ic_close" xmlns="http://www.w3.org/2000/svg"><path d="M18 6L6 18M6 6l12 12" stroke="#08C" stroke-width="2" stroke-linecap="round" stroke-linejoin="round"/></svg><svg fill="none" viewBox="0 0 24 24" id="ic_expand" xmlns="http://www.w3.org/2000/svg"><path d="M6 9l6 6 6-6" stroke="#08C" stroke-width="2" stroke-linecap="round" stroke-linejoin="round"/></svg><svg viewBox="0 0 24 24" id="ic_person" xmlns="http://www.w3.org/2000/svg"><path d="M0 0h24v24H0V0z" fill="none"/><path d="M12 2C6.48 2 2 6.48 2 12s4.48 10 10 10 10-4.48 10-10S17.52 2 12 2zM7.07 18.28c.43-.9 3.05-1.78 4.93-1.78s4.51.88 4.93 1.78C15.57 19.36 13.86 20 12 20s-3.57-.64-4.93-1.72zm11.29-1.45c-1.43-1.74-4.9-2.33-6.36-2.33s-4.93.59-6.36 2.33A7.95 7.95 0 014 12c0-4.41 3.59-8 8-8s8 3.59 8 8c0 1.82-.62 3.49-1.64 4.83zM12 6c-1.94 0-3.5 1.56-3.5 3.5S10.06 13 12 13s3.5-1.56 3.5-3.5S13.94 6 12 6zm0 5c-.83 0-1.5-.67-1.5-1.5S11.17 8 12 8s1.5.67 1.5 1.5S12.83 11 12 11z"/></svg><svg viewBox="0 0 24 24" id="ic_up" xmlns="http://www.w3.org/2000/svg"><path d="M0 0h24v24H0V0z" fill="none"/><path d="M4 12l1.41 1.41L11 7.83V20h2V7.83l5.58 5.59L20 12l-8-8-8 8z"/></svg><svg fill="none" viewBox="0 0 25 24" id="icon-download" xmlns="http://www.w3.org/2000/svg"><path d="M21 14.667v3.555A1.778 1.778 0 0119.222 20H6.778A1.778 1.778 0 015 18.222v-3.555M8.556 10.222L13 14.667l4.445-4.445M13 14.667V4" stroke="#fff" stroke-width="2" stroke-linecap="round" stroke-linejoin="round"/></svg><svg fill="none" viewBox="0 0 24 24" id="icon_calendar" xmlns="http://www.w3.org/2000/svg"><path d="M19 3H5a2 2 0 00-2 2v14a2 2 0 002 2h14a2 2 0 002-2V5a2 2 0 00-2-2zM16 1v4M8 1v4M3 9h18" stroke="#08C" stroke-width="2" stroke-linecap="round" stroke-linejoin="round"/></svg><svg fill="none" viewBox="0 0 40 36" id="icon_camera" xmlns="http://www.w3.org/2000/svg"><path d="M37 31.667c0 .884-.345 1.732-.959 2.357a3.243 3.243 0 01-2.314.976H4.273c-.868 0-1.7-.351-2.314-.976A3.365 3.365 0 011 31.667V13.333c0-.884.345-1.732.959-2.357A3.243 3.243 0 014.273 10h6.545l3.273-5h9.818l3.273 5h6.545c.868 0 1.7.351 2.314.976.614.625.959 1.473.959 2.357v18.334z" stroke="#08C" stroke-width="2" stroke-linecap="round" stroke-linejoin="round"/><path d="M19 28.333c3.615 0 6.546-2.984 6.546-6.666C25.546 17.985 22.614 15 19 15s-6.545 2.985-6.545 6.667 2.93 6.666 6.545 6.666z" stroke="#08C" stroke-width="2" stroke-linecap="round" stroke-linejoin="round"/><circle cx="32" cy="8" r="8" fill="#08C"/><path d="M32 4v8M28 8h8" stroke="#fff" stroke-width="2" stroke-linecap="round" stroke-linejoin="round"/></svg><svg fill="none" viewBox="0 0 17 24" id="icon_chevron_left" xmlns="http://www.w3.org/2000/svg"><path d="M10.5 17l-4-4 4-4" stroke="#fff" stroke-width="2" stroke-linecap="round" stroke-linejoin="round"/></svg><svg fill="none" viewBox="0 0 28 28" id="icon_chevron_left_small_border" xmlns="http://www.w3.org/2000/svg"><path d="M16 18l-4-4 4-4" stroke="#fff" stroke-linecap="round" stroke-linejoin="round"/><path d="M8 1h12v-2H8v2zm19 7v12h2V8h-2zm-7 19H8v2h12v-2zM1 20V8h-2v12h2zm7 7a7 7 0 01-7-7h-2a9 9 0 009 9v-2zm19-7a7 7 0 01-7 7v2a9 9 0 009-9h-2zM20 1a7 7 0 017 7h2a9 9 0 00-9-9v2zM8-1a9 9 0 00-9 9h2a7 7 0 017-7v-2z" fill="#fff"/></svg><svg fill="none" viewBox="0 0 16 24" id="icon_chevron_right" xmlns="http://www.w3.org/2000/svg"><path d="M6 9l4 4-4 4" stroke="#fff" stroke-width="2" stroke-linecap="round" stroke-linejoin="round"/></svg><svg fill="none" viewBox="0 0 24 24" id="icon_filter" xmlns="http://www.w3.org/2000/svg"><path d="M21 4H3l7.2 8.409v5.813L13.8 20v-7.591L21 4z" stroke="#fff" stroke-width="2" stroke-linecap="round" stroke-linejoin="round"/></svg><svg fill="none" viewBox="0 0 20 20" id="icon_phone" xmlns="http://www.w3.org/2000/svg"><path d="M19 14.476v2.71a1.803 1.803 0 01-1.23 1.719c-.24.08-.492.11-.744.088a17.933 17.933 0 01-7.81-2.773 17.63 17.63 0 01-5.43-5.42 17.853 17.853 0 01-2.779-7.83A1.803 1.803 0 012.08 1.153c.23-.101.478-.154.73-.154h2.714a1.812 1.812 0 011.81 1.554c.115.867.328 1.718.634 2.538a1.803 1.803 0 01-.407 1.906L6.41 8.145a14.466 14.466 0 005.43 5.42l1.15-1.148a1.811 1.811 0 011.91-.406c.82.305 1.674.518 2.543.632a1.81 1.81 0 011.556 1.833z" stroke="#08C" stroke-width="2" stroke-linecap="round" stroke-linejoin="round"/></svg><svg fill="none" viewBox="0 0 24 24" id="icon_search" xmlns="http://www.w3.org/2000/svg"><path d="M11 18a7 7 0 100-14 7 7 0 000 14zM20 20l-4-4" stroke="#08C" stroke-width="2" stroke-linecap="round" stroke-linejoin="round"/></svg><svg fill="none" viewBox="0 0 28 28" id="icon_x_small_border" xmlns="http://www.w3.org/2000/svg"><path d="M18 10l-8 8M10 10l8 8" stroke="#fff" stroke-linecap="round" stroke-linejoin="round"/><path d="M8 1h12v-2H8v2zm19 7v12h2V8h-2zm-7 19H8v2h12v-2zM1 20V8h-2v12h2zm7 7a7 7 0 01-7-7h-2a9 9 0 009 9v-2zm19-7a7 7 0 01-7 7v2a9 9 0 009-9h-2zM20 1a7 7 0 017 7h2a9 9 0 00-9-9v2zM8-1a9 9 0 00-9 9h2a7 7 0 017-7v-2z" fill="#fff"/></svg><svg fill="none" viewBox="0 0 64 64" id="ser-1" xmlns="http://www.w3.org/2000/svg"><path d="M60.34 60.723l-2.83-16.575a4.718 4.718 0 00-3.307-3.744L46.566 38.1a8.493 8.493 0 00-2.197-5.022 8.51 8.51 0 00-3.713-2.375c.242-.268.466-.536.672-.797 1.816-2.31 2.788-4.854 3.035-6.59h.59a2.782 2.782 0 002.778-2.78v-1.424c0-1.023-.575-1.95-1.44-2.43v-3.426a.937.937 0 10-1.874 0v3.846a5.78 5.78 0 00-1.378.42c-.101.045-.202.094-.302.148v-7.553a3.788 3.788 0 00-3.784-3.784h-2.587c-.892 0-1.764.311-2.455.876l-.254.207A2.625 2.625 0 0132 8.007c-.602 0-1.19-.21-1.657-.59l-.254-.208a3.889 3.889 0 00-2.454-.876h-2.588a3.788 3.788 0 00-3.784 3.784v7.553a4.811 4.811 0 00-.301-.149 5.783 5.783 0 00-1.378-.42V7.379a5.51 5.51 0 015.503-5.504h13.826a5.51 5.51 0 015.503 5.504v1.473a.937.937 0 101.875 0V7.378C46.29 3.31 42.98 0 38.913 0H25.088c-4.069 0-7.379 3.31-7.379 7.378v9.304a2.798 2.798 0 00-1.44 2.43v1.425a2.782 2.782 0 002.779 2.778h.589c.247 1.737 1.22 4.281 3.036 6.59.205.262.43.53.67.797a8.548 8.548 0 00-5.909 7.398l-7.637 2.304a4.718 4.718 0 00-3.306 3.743L5.34 50.88a.937.937 0 101.848.315l1.15-6.731a2.854 2.854 0 012-2.265l7.063-2.13v1.853c-1.62.298-2.997 1.41-3.564 2.951a4.75 4.75 0 00-.278 1.273l-.683 8.762a2.39 2.39 0 00.626 1.803 2.39 2.39 0 001.749.764h1.168a.937.937 0 100-1.874h-1.168a.508.508 0 01-.506-.547l.682-8.762c.02-.264.077-.524.169-.771.395-1.072 1.46-1.798 2.653-1.806l.154-.002h.021c1.16 0 2.185.657 2.617 1.679.122.286.195.589.22.9l.683 8.762a.51.51 0 01-.507.547H20.27a.937.937 0 100 1.874h1.168c.662 0 1.3-.279 1.749-.764.45-.486.678-1.144.626-1.803l-.682-8.762a4.75 4.75 0 00-.363-1.486c-.617-1.457-1.937-2.47-3.492-2.744v-2.413l3.222-.973c.293.618.874 1.952 2.024 4.828a781.647 781.647 0 014.018 10.326c.922 2.414 1.817 4.778 2.582 6.817a.937.937 0 001.755 0 1212.421 1212.421 0 012.617-6.906 779.126 779.126 0 013.981-10.232c1.152-2.88 1.734-4.215 2.027-4.833l3.222.973v5.535a4.857 4.857 0 00-3.923 4.76 4.855 4.855 0 004.85 4.85 4.855 4.855 0 004.848-4.85c0-2.35-1.68-4.314-3.9-4.756v-4.974l7.063 2.131a2.854 2.854 0 012 2.265l2.831 16.575a.916.916 0 01-.206.757.916.916 0 01-.711.33H6.424a.916.916 0 01-.711-.33.916.916 0 01-.206-.757l.934-5.47a.937.937 0 10-1.847-.315l-.935 5.47a2.8 2.8 0 00.621 2.281A2.8 2.8 0 006.424 64h51.152a2.8 2.8 0 002.144-.996 2.8 2.8 0 00.62-2.281zM44.429 19.01c.499-.124.9-.122.904-.122a.959.959 0 00.458-.109.889.889 0 01.067.332v1.425a.906.906 0 01-.905.904h-.524v-2.43zm-24.856 2.43h-.524a.905.905 0 01-.905-.904v-1.425a.89.89 0 01.067-.332c.139.073.296.111.458.109.007.001.407-.001.904.123v2.429zm1.875 1.05V20.03a1.313 1.313 0 001.691-1.26v-8.653c0-1.053.856-1.91 1.91-1.91h2.586c.461 0 .912.161 1.269.453l.253.207c.8.655 1.81 1.015 2.844 1.015 1.034 0 2.044-.36 2.844-1.015l.253-.207a2.009 2.009 0 011.269-.453h2.587c1.052 0 1.91.857 1.91 1.91v8.652a1.313 1.313 0 001.69 1.262v2.46c0 1.37-.946 4.026-2.699 6.256a12.35 12.35 0 01-2.33 2.289c-1.424 1.053-3.255 1.86-5.524 1.86-2.27 0-4.1-.807-5.524-1.86a12.364 12.364 0 01-2.33-2.289c-1.753-2.23-2.7-4.887-2.7-6.255zM38.14 37.635L32 42.223l-6.14-4.59c.609-.773.95-1.767.95-2.653v-1.51c1.444.776 3.167 1.3 5.19 1.3 2.023 0 3.746-.524 5.19-1.3v1.51c0 .887.341 1.88.95 2.654zm-13.844-1.046a2.563 2.563 0 00-1.648-.062l-3.238.977c.548-2.693 2.735-4.836 5.526-5.251v2.728c0 .588-.263 1.196-.64 1.608zm2.544 7.523l-.006-.013-.14-.356-.026-.063-.135-.34a393.747 393.747 0 00-.41-1.029l-.029-.07-.11-.272-.039-.098-.104-.257-.03-.075-.182-.448-.049-.119-.068-.167-.073-.178c-.01-.022-.018-.045-.027-.067l-.021-.051-.31-.744c0-.002 0-.004-.002-.006a99.072 99.072 0 00-.151-.36l-.075-.177 5.28 3.947-2.206.937-.012.005-.921.392-.154-.39zm2.236 5.739a1206.533 1206.533 0 00-1.397-3.603l.35-.148 1.428 1.66-.381 2.09zm2.942 7.617a.926.926 0 00-.096-.157c-.423-1.12-.96-2.536-1.556-4.095l.875-4.79h1.518l.875 4.79c-.624 1.633-1.184 3.11-1.616 4.252zM33.11 46.55h-2.22l-1.05-1.222 2.16-.918 2.16.918-1.05 1.221zm2.373 1.852l-.559 1.447-.382-2.09 1.43-1.662.35.149c-.268.684-.547 1.402-.84 2.157zm3.59-9.005l-.144.341-.02.046a159.623 159.623 0 00-.16.384l-.135.329-.025.061-.032.077-.062.152-.078.19-.026.063-.2.493-.032.08-.103.255-.041.1-.108.27-.031.077c-.127.316-.26.647-.396.99l-.014.035-.134.338-.025.063-.142.358-.003.007-.156.395-.922-.392-.01-.004-2.207-.938 5.28-3.947-.075.177zm2.279-2.872h-.003a2.561 2.561 0 00-1.645.062c-.377-.412-.64-1.02-.64-1.608v-2.73a6.606 6.606 0 015.53 5.254l-3.242-.978zm7.273 13.27a2.978 2.978 0 01-2.975 2.976 2.978 2.978 0 01-2.975-2.975 2.978 2.978 0 012.975-2.975 2.978 2.978 0 012.975 2.975z" fill="#08C"/></svg><svg fill="none" viewBox="0 0 64 64" id="ser-2" xmlns="http://www.w3.org/2000/svg"><path d="M52.798 53.78c1.244.262 2.03 1.244 1.966 2.554-.066 1.834 0 3.668 0 5.568h-2.228V59.02v-2.948H40.024v5.83h-2.228v-.59c0-1.638.066-3.21 0-4.848-.066-1.31.458-2.292 1.966-2.752 0-2.292-.066-4.586 0-6.878.066-2.162.786-4.062 2.292-5.634l9.63-9.63c.196-.196.59-.328.918-.394 1.244-.066 2.424 0 3.472.852.982.786 1.506 1.834 1.638 3.078.132 1.18-.262 2.03-1.18 2.882-1.9 1.768-3.668 3.668-5.568 5.502-.524.524-.59.524-1.114 0-1.244-1.244-1.244-.982 0-2.228l5.11-5.11c.72-.72.656-1.834-.196-2.424-.72-.524-1.442-.458-2.03.132l-8.974 8.974c-1.114 1.114-1.704 2.424-1.768 3.864-.132 2.358 0 4.652 0 7.01h8.582c-.066-1.244.132-2.49.786-3.538.458-.72.982-1.506 1.572-2.096 2.228-2.292 4.586-4.586 6.878-6.878 1.048-1.114 1.638-2.358 1.638-3.93-.066-4.912 0-9.826 0-14.74 0-1.442-1.244-2.292-2.554-1.834-.656.262-1.114.918-1.114 1.768V30.256h-2.228V29.6v-7.336c0-2.03 1.638-3.864 3.668-4.062 2.228-.196 4.062 1.376 4.454 3.538v.524c0 5.044-.066 10.022 0 15.066 0 2.162-.852 3.93-2.292 5.436-2.358 2.424-4.782 4.716-7.14 7.14-.982 1.18-1.572 2.358-1.442 3.864l-.002.01zm-28.56-6.616c-.066-2.424-.852-4.52-2.554-6.224-2.882-2.882-5.764-5.698-8.582-8.646-.852-.852-1.638-1.31-2.882-1.18-1.244.13-2.292.656-3.078 1.638-.852 1.048-.916 2.292-.852 3.538 0 .262.132.59.328.786 1.9 1.966 3.864 3.864 5.83 5.83 1.244 1.244.982 1.244 2.228 0 .524-.524.524-.59 0-1.114l-5.634-5.634c-.59-.59-.72-1.18-.262-1.966.524-.918 1.768-1.114 2.49-.394l8.908 8.908c1.244 1.244 1.834 2.752 1.834 4.454v6.484H13.43c-.066-.524-.066-1.048-.132-1.506-.262-1.768-1.18-3.144-2.424-4.324l-6.878-6.878c-.852-.852-1.376-1.966-1.376-3.406V22.594c0-1.244.72-2.03 1.834-2.03s1.834.786 1.834 2.03V30.39h2.228v-.72-7.272c0-.394-.066-.72-.132-1.048-.524-1.834-2.49-3.21-4.454-2.948-2.096.328-3.538 2.096-3.538 3.996V38.12c0 .262.066.458.066.72.328 1.768 1.244 3.144 2.424 4.39l6.878 6.878c.982.982 1.572 2.162 1.442 3.668-1.31.262-2.096 1.31-1.966 2.554.066.982 0 2.03 0 3.014v2.554h2.228v-5.83h12.578v5.83h2.162c0-1.834-.066-3.668 0-5.502.066-1.31-.524-2.292-1.966-2.686 0-2.162.066-4.324 0-6.55v.004zm5.044-41.858c-2.686-2.228-5.83-3.21-9.302-2.358-3.34.786-5.698 2.882-7.074 6.026-1.048 2.49-.852 5.11-.328 7.664 1.114 4.978 3.734 9.106 7.074 12.84 1.572 1.768 3.34 3.406 5.176 4.912 2.096 1.704 4.388 3.21 6.55 4.848.458.328.852.262 1.244 0 4.52-2.882 8.646-6.224 12.184-10.284 2.096-2.424 3.93-5.044 5.174-8.058 1.31-3.078 2.096-6.288 1.704-9.696-.262-2.228-1.31-4.126-2.882-5.634-2.292-2.228-5.11-3.276-8.32-2.816-2.554.328-4.716 1.442-6.55 3.21-.72.72-1.31 1.506-1.9 2.162-.852-.916-1.704-1.966-2.752-2.816h.002zm3.798 7.402c.132-2.162.982-3.93 2.554-5.372 1.442-1.31 3.078-2.096 5.044-2.358 2.62-.392 4.848.328 6.682 2.162 1.9 1.9 2.49 4.258 2.162 6.944a19.686 19.686 0 01-1.966 6.682c-.982 2.096-2.292 4.062-3.8 5.83a45.124 45.124 0 01-2.948 3.21c-2.62 2.686-5.634 4.978-8.778 7.01-2.424-1.572-4.716-3.276-6.812-5.176-3.014-2.686-5.7-5.634-7.796-9.106-1.442-2.424-2.424-4.978-2.816-7.73-.328-2.228-.196-4.388 1.048-6.354 1.244-1.966 3.078-3.078 5.372-3.472 3.472-.59 7.73 1.572 9.17 4.848.394.916.59 1.9.852 2.882H33.08zm8.648-6.026v2.162c1.114 0 2.096.394 2.816 1.114.72.72 1.048 1.768 1.114 2.816h2.162c.196-3.538-3.21-6.486-6.092-6.092z" fill="#08C"/></svg><svg fill="none" viewBox="0 0 64 64" id="ser-3" xmlns="http://www.w3.org/2000/svg"><g clip-path="url(#qclip0_541_1981)" fill="#08C"><path d="M19.996 4.1a9.943 9.943 0 00-7.886 3.872 8.884 8.884 0 00-.398-.01c-4.754 0-8.622 3.868-8.622 8.622 0 1.476.366 2.894 1.068 4.162A11.984 11.984 0 000 29.814c0 4.152 2.126 7.956 5.606 10.142a10.398 10.398 0 007.59 11.714c.082 4.554 3.812 8.232 8.386 8.232 4.624 0 8.386-3.762 8.386-8.386V14.072c0-5.498-4.472-9.972-9.97-9.972h-.002zm7.468 15.494c0 4.118-3.35 7.47-7.468 7.47a1.253 1.253 0 000 2.504c2.97 0 5.64-1.308 7.468-3.376v15.624a5.754 5.754 0 00-1.338-.612c-2.854-.898-6.23.318-8.026 2.89a1.251 1.251 0 102.052 1.432c1.344-1.926 3.646-2.432 5.222-1.936.78.246 2.088.97 2.088 3.06v4.866A5.89 5.89 0 0121.58 57.4a5.891 5.891 0 01-5.884-5.884c0-.226.014-.462.044-.7a1.25 1.25 0 00-1.056-1.388c-3.824-.576-6.71-3.932-6.71-7.806 0-.67.084-1.336.25-1.976.496-1.856 2.298-4.002 2.316-4.024a1.252 1.252 0 00-1.91-1.618c-.07.082-1.376 1.634-2.244 3.462a9.448 9.448 0 01-3.886-7.65 9.482 9.482 0 014.046-7.76l.024-.018c.018-.014.038-.026.056-.042 2.234-1.844 5.594-2.48 5.626-2.486a1.251 1.251 0 00-.45-2.464c-.142.026-3.052.572-5.612 2.186a6.127 6.127 0 015.518-8.768c.266 0 .546.02.832.058.476.064.946-.15 1.212-.552a7.46 7.46 0 016.242-3.368c4.118 0 7.468 3.35 7.468 7.47v5.524l.002-.002zM64 29.814c0-3.496-1.536-6.804-4.158-9.068a8.542 8.542 0 001.07-4.164c0-4.754-3.868-8.622-8.622-8.622-.132 0-.264.004-.398.01a9.945 9.945 0 00-7.886-3.872c-5.498 0-9.972 4.474-9.972 9.972v37.444c0 4.624 3.762 8.386 8.386 8.386 4.572 0 8.302-3.678 8.384-8.232a10.417 10.417 0 005.18-3.236 10.394 10.394 0 002.41-8.478A11.949 11.949 0 0064 29.812v.002zm-6.388 7.65c-.868-1.828-2.174-3.38-2.244-3.462a1.251 1.251 0 00-1.908 1.618c.018.022 1.82 2.168 2.316 4.024.166.642.25 1.306.25 1.976 0 3.874-2.884 7.23-6.71 7.806a1.25 1.25 0 00-1.056 1.388c.028.238.044.474.044.7a5.891 5.891 0 01-5.884 5.884 5.89 5.89 0 01-5.882-5.884v-4.866c0-2.092 1.308-2.814 2.088-3.06 1.578-.496 3.878.01 5.222 1.936a1.251 1.251 0 002.052-1.432c-1.796-2.572-5.17-3.788-8.026-2.89-.488.154-.934.36-1.338.612V26.19a9.948 9.948 0 007.47 3.376 1.251 1.251 0 100-2.504c-4.118 0-7.47-3.35-7.47-7.47v-5.524c0-4.118 3.35-7.47 7.47-7.47 2.518 0 4.85 1.26 6.24 3.368a1.25 1.25 0 001.212.552 6.128 6.128 0 016.952 6.062c0 .93-.206 1.828-.602 2.648-2.56-1.614-5.47-2.16-5.612-2.186a1.252 1.252 0 00-.45 2.462c.034.006 3.392.644 5.626 2.486.018.016.038.03.058.044l.02.016a9.484 9.484 0 014.046 7.76c0 3.06-1.46 5.88-3.886 7.65l.002.004z"/><path d="M51.904 31.082c-1.61 0-1.612 2.502 0 2.502 1.61 0 1.612-2.502 0-2.502z"/></g><defs><clipPath id="qclip0_541_1981"><path fill="#fff" d="M0 0h64v64H0z"/></clipPath></defs></svg><svg fill="none" viewBox="0 0 64 64" id="ser-4" xmlns="http://www.w3.org/2000/svg"><path d="M64 19.125V17.25H53.562V8.5H42.938v8.75h-5.626V8.5H26.688v8.75h-5.625V8.5H10.438v8.75H0v1.875h2.313V51H.063v8.125h7.312V57.25H1.937v-4.375h40.188V51H4.187V19.125h6.25v22.188a5.319 5.319 0 005.313 5.312 5.319 5.319 0 005.313-5.313v-11.25h-1.875v11.25a3.441 3.441 0 01-3.438 3.438 3.441 3.441 0 01-3.438-3.438V24.125h6.876v4.063h1.875v-9.063h5.625v22.188A5.319 5.319 0 0032 46.624a5.319 5.319 0 005.313-5.313v-11.25h-1.876v11.25A3.441 3.441 0 0132 44.75a3.441 3.441 0 01-3.438-3.438V24.125h6.875v4.063h1.876v-9.063h5.624v22.188a5.319 5.319 0 005.313 5.312 5.319 5.319 0 005.313-5.313v-11.25h-1.876v11.25a3.441 3.441 0 01-3.437 3.438 3.441 3.441 0 01-3.438-3.438V24.125h6.876v4.063h1.874v-9.063h6.25V51H44v1.875h18.063v4.375H9.25v1.875h54.688V51h-2.25V19.125H64zM19.187 22.25h-6.875V10.375h6.876V22.25zm16.25 0h-6.874V10.375h6.875V22.25zm16.25 0h-6.874V10.375h6.874V22.25zM27 4.75h10v1.875H27V4.75zM43.25 4.75h10v1.875h-10V4.75zM10.75 4.75h10v1.875h-10V4.75z" fill="#08C"/><path d="M15.438 34.438h1.874v1.874h-1.875v-1.874zM14.188 39.438h1.874v1.874h-1.875v-1.874zM14.188 29.438h1.874v1.875h-1.875v-1.875zM30.438 34.438h1.875v1.874h-1.876v-1.874zM31.688 39.438h1.875v1.874h-1.876v-1.874zM31.688 29.438h1.875v1.875h-1.876v-1.875zM47.938 34.438h1.874v1.874h-1.874v-1.874zM46.688 39.438h1.874v1.874h-1.874v-1.874zM46.688 29.438h1.874v1.875h-1.874v-1.875z" fill="#08C"/></svg><svg fill="none" viewBox="0 0 64 64" id="ser-5" xmlns="http://www.w3.org/2000/svg"><path d="M24.994 44.971a.886.886 0 01-.134-.01l-9.411-1.365a.953.953 0 01-.768-.65.975.975 0 01.23-.988L51.886 4.414A4.689 4.689 0 0155.247 3c1.27 0 2.463.503 3.361 1.414A4.83 4.83 0 0160 7.827c0 1.29-.495 2.501-1.392 3.413L25.666 44.688a.948.948 0 01-.672.283zM17.6 41.957l7.06 1.025L57.263 9.874a2.899 2.899 0 00.835-2.048c0-.774-.297-1.5-.835-2.047-1.078-1.095-2.956-1.093-4.034 0L17.6 41.957z" fill="#08C"/><path d="M45.836 18.348a.94.94 0 01-.672-.283.975.975 0 010-1.365l8.739-8.874a.94.94 0 011.344 0 .975.975 0 010 1.365l-8.74 8.874a.938.938 0 01-.671.283zM24.994 44.971a.873.873 0 01-.134-.01l-9.411-1.365a.953.953 0 01-.768-.65.975.975 0 01.23-.988L26.34 30.354a.935.935 0 011.084-.187c.364.177.578.57.533.977-.002.02-.221 2.305 1.029 3.565.711.716 1.82.993 3.3.828.4-.042.787.173.961.542.175.37.1.812-.184 1.102l-7.397 7.508a.95.95 0 01-.672.282zM17.6 41.958l7.06 1.024 5.505-5.59c-1.01-.199-1.856-.642-2.53-1.325-.828-.842-1.234-1.906-1.428-2.846l-8.607 8.737z" fill="#08C"/><path d="M4.95 61a.941.941 0 01-.574-.196.977.977 0 01-.324-1.085l2.964-8.706a6.677 6.677 0 011.69-2.983c.8-.812 1.947-1.223 3.151-1.131.227.017.758-.108 1.774-1.141l3.653-3.481c.21-.2.5-.294.785-.252l5.883.853a.97.97 0 01.526 1.65l-6.602 6.476a56.662 56.662 0 01-7.748 6.564l-4.64 3.26A.926.926 0 014.95 61zm6.564-12.183c-.578 0-1.092.202-1.463.58-.58.586-1 1.34-1.217 2.178l-2.036 5.988 2.25-1.582a54.687 54.687 0 007.498-6.354l5.214-5.116-3.507-.508-3.298 3.143c-.745.758-1.914 1.786-3.243 1.678a2.382 2.382 0 00-.198-.007z" fill="#08C"/></svg><svg fill="none" viewBox="0 0 64 64" id="ser-6" xmlns="http://www.w3.org/2000/svg"><g clip-path="url(#tclip0_541_626)" fill="#08C"><path d="M30.176 14.01h8.39v10.485a1 1 0 102 0V13.01a1 1 0 00-1-1h-9.39a1 1 0 000 2zM38.567 32.533v9.517a1 1 0 102 0v-9.517a1 1 0 00-2 0zM39.567 47.96a1 1 0 00-1 1V62H2V14.01h8.484a1 1 0 100-2H1a1 1 0 00-1 1V63a1 1 0 001 1h38.567a1 1 0 001-1V48.96a1 1 0 00-1-1z"/><path d="M36.077 25.495a1 1 0 001-1v-8a1 1 0 00-1-1H4.49a1 1 0 00-1 1V59.51a1 1 0 001 1h31.588a1 1 0 001-1v-9.812a1 1 0 00-2 0v8.812H5.49V17.5h29.588v6.995a1 1 0 001 1z"/><path d="M35.077 31.228v11.947a1 1 0 102 0V31.228a1 1 0 00-2 0zM13.759 14.01h13.048a1 1 0 00.972-1.238l-.868-3.527a1 1 0 00-.97-.762H14.626a1 1 0 00-.97.762l-.869 3.527a1 1 0 00.97 1.239zm1.652-3.527h9.745l.375 1.528H15.035l.376-1.528z"/><path d="M63 0h-2.267a1 1 0 100 2H62v8.143a7.67 7.67 0 11-15.341 0V2h1.817a1 1 0 100-2h-2.817a1 1 0 00-1 1v9.143a9.684 9.684 0 008.674 9.618v2.871c0 14-9.916 22.673-19.104 22.673a8.069 8.069 0 01-8.286-8.373 8.081 8.081 0 012.148-5.621 9.057 9.057 0 016.77-2.548c3.587 0 7.7 2.456 12.226 7.297a1.002 1.002 0 101.466-1.365c-4.918-5.263-9.524-7.932-13.686-7.932a10.997 10.997 0 00-8.219 3.169 10.07 10.07 0 00-2.7 7 10.12 10.12 0 0010.287 10.373c13.036 0 21.104-12.8 21.104-24.666V19.76A9.684 9.684 0 0064 10.143V1a1 1 0 00-1-1z"/><path d="M58.697 46.59a4.718 4.718 0 00-1.232.183 78.317 78.317 0 00-4.933-7.318 1 1 0 00-1.592 1.21 78.015 78.015 0 014.747 7.031 4.732 4.732 0 103.01-1.105zm0 7.523a2.76 2.76 0 110-5.521 2.76 2.76 0 010 5.521zM27.2 24.183a1 1 0 00-1-1H10a1 1 0 000 2h16.205a1 1 0 00.995-1zM21.301 30.228H10a1.001 1.001 0 000 2h11.299a1 1 0 100-2h.002zM10 39.273h11.299a1 1 0 100-2H10a1 1 0 000 2zM10 46.319h11.299a1 1 0 000-2H10a1 1 0 000 2zM10 53.364h20.612a1 1 0 100-2H10a1 1 0 000 2z"/></g><defs><clipPath id="tclip0_541_626"><path fill="#fff" d="M0 0h64v64H0z"/></clipPath></defs></svg></svg>